<svg width="24" height="29" viewBox="0 0 24 29" fill="none" xmlns="http://www.w3.org/2000/svg">
<path d="M23.3203 20.5206C22.3326 20.2193 21.4453 19.5162 20.6752 18.4113C19.9051 17.3063 19.5201 16.0508 19.5201 14.678C19.5201 13.4057 19.8884 12.2505 20.6083 11.2126C21.01 10.6267 21.6462 9.97376 22.5167 9.23715C21.9475 8.53402 21.3616 7.96483 20.7757 7.56304C19.7377 6.84318 18.5491 6.47487 17.2098 6.47487C16.3895 6.47487 15.4185 6.67577 14.3136 7.04407C13.2087 7.42911 12.4051 7.61327 11.9196 7.61327C11.5346 7.61327 10.7645 7.44586 9.60938 7.11103C8.4375 6.77621 7.46652 6.6088 6.64621 6.6088C4.72098 6.6088 3.14732 7.41237 1.89174 9.01952C0.636161 10.6434 0 12.7193 0 15.2807C0 18.0262 0.837054 20.822 2.46094 23.7014C4.1183 26.5809 5.77567 28.0374 7.5 28.0374C8.05246 28.0374 8.78906 27.8532 9.70982 27.4682C10.6138 27.0999 11.4174 26.9157 12.0871 26.9157C12.7734 26.9157 13.6272 27.0831 14.615 27.4514C15.6194 27.803 16.3895 27.9871 16.9587 27.9871C18.3817 27.9871 19.8214 26.899 21.2612 24.7059C22.2321 23.2494 22.9018 21.8432 23.3203 20.5206ZM17.0257 0.883355C17.0257 0.766168 17.0089 0.665721 17.0089 0.548533C16.9922 0.448086 16.9587 0.330899 16.9252 0.180228C14.9833 0.632238 13.577 1.45255 12.74 2.65791C11.9029 3.86326 11.4676 5.303 11.4342 6.96036C12.221 6.8934 12.7902 6.79295 13.1752 6.67577C13.7779 6.47487 14.3806 6.07309 14.9833 5.47041C15.6864 4.76728 16.2054 3.99719 16.5402 3.16014C16.8583 2.33983 17.0257 1.56974 17.0257 0.883355Z" fill="white"/>
</svg>
