<svg width="40" height="41" viewBox="0 0 40 41" fill="none" xmlns="http://www.w3.org/2000/svg">
<g clip-path="url(#clip0_232_3232)">
<path d="M37.8386 26.8447V7.67809H32.3023C31.3862 5.71168 29.3919 4.34473 27.0834 4.34473C24.7748 4.34473 22.7805 5.71168 21.8644 7.67809H2.16148V26.8447H0V29.9849C0 33.2218 2.63336 35.8551 5.87031 35.8551H34.1298C37.3667 35.8551 40.0001 33.2218 40.0001 29.9849V26.8447H37.8386ZM27.0834 6.68848C28.9645 6.68848 30.4948 8.21887 30.4948 10.1C30.4948 11.9811 28.9645 13.5114 27.0834 13.5114C25.2023 13.5114 23.6719 11.9811 23.6719 10.1C23.6719 8.21887 25.2023 6.68848 27.0834 6.68848ZM29.2318 15.4375V19.1182L27.0834 18.579L24.9349 19.1182V15.4375C25.5992 15.7059 26.324 15.8551 27.0834 15.8551C27.8427 15.8551 28.5675 15.706 29.2318 15.4375ZM4.50523 10.0218H21.3301C21.3301 11.3796 21.8018 12.7063 22.5912 13.6915V22.1229L27.0834 20.9955L31.5755 22.1229V13.6915C32.3649 12.7063 32.8366 11.3796 32.8366 10.0218H35.4948V26.8447H20.4851C20.3963 24.5367 19.1298 22.5256 17.2692 21.3986C18.2204 20.4897 18.8148 19.2104 18.8148 17.7941C18.8148 15.0436 16.577 12.8059 13.8265 12.8059C11.076 12.8059 8.83828 15.0436 8.83828 17.7941C8.83828 19.2104 9.43258 20.4898 10.3837 21.3986C8.52328 22.5255 7.25664 24.5366 7.16797 26.8447H4.50523V10.0218ZM13.8262 22.7823C16.1218 22.7825 18.0058 24.5822 18.1402 26.8447H9.51289C9.64742 24.5822 11.5305 22.7825 13.8262 22.7823ZM11.1821 17.7941C11.1821 16.3359 12.3684 15.1496 13.8266 15.1496C15.2848 15.1496 16.4711 16.336 16.4711 17.7941C16.4711 19.2521 15.285 20.4384 13.827 20.4386C12.369 20.4384 11.1821 19.2521 11.1821 17.7941ZM37.6562 29.9849C37.6562 31.9294 36.0743 33.5114 34.1298 33.5114H5.87031C3.92578 33.5114 2.34375 31.9293 2.34375 29.9849V29.1911H37.6562V29.9849Z" fill="#1F4B3F"/>
</g>
<defs>
<clipPath id="clip0_232_3232">
<rect width="40" height="40" fill="white" transform="translate(0 0.0996094)"/>
</clipPath>
</defs>
</svg>
