<svg width="27" height="28" viewBox="0 0 27 28" fill="none" xmlns="http://www.w3.org/2000/svg">
<path d="M19.2501 0H25.6257L25.7657 0.0195999L25.9043 0.0588001L25.9883 0.0952001C26.1003 0.143733 26.2025 0.213733 26.2949 0.3052L26.3509 0.3668L26.4125 0.4466L26.4881 0.5726L26.5427 0.6986L26.5693 0.7882L26.5889 0.8778L26.6015 1.0108V7.3556C26.6014 7.62163 26.5003 7.87772 26.3187 8.07211C26.1371 8.2665 25.8885 8.3847 25.6231 8.40284C25.3576 8.42097 25.0952 8.33768 24.8889 8.16979C24.6825 8.00191 24.5475 7.76195 24.5113 7.4984L24.5015 7.3556V3.5826L15.4855 12.5986C15.3077 12.7764 15.072 12.8845 14.8213 12.9033C14.5705 12.9221 14.3213 12.8502 14.1191 12.7008L14.0015 12.6L9.75948 8.526L1.79348 16.4906C1.60613 16.6785 1.3546 16.7884 1.08946 16.7984C0.824322 16.8084 0.56524 16.7176 0.364305 16.5443C0.16337 16.3711 0.0354806 16.1282 0.00635038 15.8644C-0.0227798 15.6007 0.0490092 15.3357 0.207284 15.1228L0.309483 15.0052L9.01748 6.2972C9.19544 6.11959 9.43123 6.01172 9.68198 5.99323C9.93272 5.97473 10.1818 6.04682 10.3839 6.1964L10.5015 6.2972L14.7435 10.3712L23.0147 2.1H19.2487C18.9952 2.09965 18.7504 2.00761 18.5595 1.84087C18.3685 1.67412 18.2444 1.44394 18.2099 1.1928L18.2001 1.05C18.2001 0.796267 18.292 0.551121 18.4588 0.359897C18.6255 0.168673 18.8559 0.0443076 19.1073 0.00979996L19.2501 0ZM1.05148 21C1.32996 21 1.59703 21.1106 1.79395 21.3075C1.99086 21.5044 2.10148 21.7715 2.10148 22.05V26.95C2.10148 27.2285 1.99086 27.4956 1.79395 27.6925C1.59703 27.8894 1.32996 28 1.05148 28C0.773006 28 0.505934 27.8894 0.309021 27.6925C0.112108 27.4956 0.00148344 27.2285 0.00148344 26.95V22.05C0.00148344 21.7715 0.112108 21.5044 0.309021 21.3075C0.505934 21.1106 0.773006 21 1.05148 21ZM9.10148 16.45C9.10148 16.1715 8.99086 15.9045 8.79394 15.7075C8.59703 15.5106 8.32996 15.4 8.05148 15.4C7.77301 15.4 7.50593 15.5106 7.30902 15.7075C7.11211 15.9045 7.00148 16.1715 7.00148 16.45V26.95C7.00148 27.2285 7.11211 27.4956 7.30902 27.6925C7.50593 27.8894 7.77301 28 8.05148 28C8.32996 28 8.59703 27.8894 8.79394 27.6925C8.99086 27.4956 9.10148 27.2285 9.10148 26.95V16.45ZM15.0515 18.2C15.33 18.2 15.597 18.3106 15.7939 18.5075C15.9909 18.7045 16.1015 18.9715 16.1015 19.25V26.95C16.1015 27.2285 15.9909 27.4956 15.7939 27.6925C15.597 27.8894 15.33 28 15.0515 28C14.773 28 14.5059 27.8894 14.309 27.6925C14.1121 27.4956 14.0015 27.2285 14.0015 26.95V19.25C14.0015 18.9715 14.1121 18.7045 14.309 18.5075C14.5059 18.3106 14.773 18.2 15.0515 18.2ZM23.1015 12.25C23.1015 11.9715 22.9909 11.7045 22.7939 11.5075C22.597 11.3106 22.33 11.2 22.0515 11.2C21.773 11.2 21.5059 11.3106 21.309 11.5075C21.1121 11.7045 21.0015 11.9715 21.0015 12.25V26.95C21.0015 27.2285 21.1121 27.4956 21.309 27.6925C21.5059 27.8894 21.773 28 22.0515 28C22.33 28 22.597 27.8894 22.7939 27.6925C22.9909 27.4956 23.1015 27.2285 23.1015 26.95V12.25Z" fill="#1F4B3F"/>
</svg>
