<svg width="226" height="21" viewBox="0 0 226 21" fill="none" xmlns="http://www.w3.org/2000/svg">
<circle cx="222.5" cy="17.5" r="3.5" fill="black"/>
<path d="M2.24454 14.4733V11.1281H11.0595C12.311 11.1281 13.2723 10.8368 13.9434 10.2542C14.6235 9.67165 14.9636 8.83875 14.9636 7.75553V7.72822C14.9636 6.6541 14.6235 5.82575 13.9434 5.24317C13.2723 4.6606 12.311 4.36931 11.0595 4.36931H2.24454V0.955787H11.7941C13.3811 0.955787 14.7505 1.23797 15.9022 1.80234C17.054 2.35761 17.9427 3.14044 18.5685 4.15085C19.1942 5.15215 19.5071 6.3264 19.5071 7.6736V7.70091C19.5071 9.03901 19.1942 10.2178 18.5685 11.2373C17.9427 12.2568 17.054 13.0533 15.9022 13.6268C14.7505 14.1912 13.3811 14.4733 11.7941 14.4733H2.24454ZM0 20.6586V0.955787H4.47548V20.6586H0Z" fill="#1DBF73"/>
<path d="M21.6564 20.6586V6.11703L25.9959 6.13069V9.06632H26.0775C26.3768 8.03771 26.9254 7.24122 27.7235 6.67685C28.5216 6.10338 29.5055 5.81665 30.6754 5.81665C30.9475 5.81665 31.2059 5.83485 31.4508 5.87126C31.7047 5.89857 31.9269 5.93498 32.1174 5.98049V9.50325C31.8816 9.44863 31.6095 9.40767 31.3012 9.38036C31.0019 9.35306 30.6936 9.3394 30.3761 9.3394C29.4874 9.3394 28.712 9.50325 28.05 9.83095C27.397 10.1586 26.8892 10.6502 26.5264 11.3056C26.1727 11.9519 25.9959 12.7575 25.9959 13.7224V20.6586H21.6564Z" fill="#1DBF73"/>
<path d="M41.7757 21C39.9257 21 38.3114 20.6905 36.9329 20.0715C35.5545 19.4525 34.4843 18.5741 33.7226 17.4363C32.9608 16.2984 32.5799 14.9512 32.5799 13.3947V13.3674C32.5799 11.8108 32.9608 10.4636 33.7226 9.32575C34.4934 8.18791 35.5681 7.30949 36.9465 6.69051C38.325 6.07152 39.9347 5.76203 41.7757 5.76203C43.6258 5.76203 45.24 6.07152 46.6185 6.69051C47.9969 7.30949 49.0671 8.18791 49.8289 9.32575C50.5997 10.4636 50.9851 11.8108 50.9851 13.3674V13.3947C50.9851 14.9603 50.5997 16.3121 49.8289 17.4499C49.0671 18.5787 47.9969 19.4525 46.6185 20.0715C45.24 20.6905 43.6258 21 41.7757 21ZM41.7893 17.8459C42.7325 17.8459 43.5623 17.673 44.2787 17.327C45.0042 16.972 45.5665 16.4668 45.9655 15.8114C46.3645 15.1469 46.5641 14.3414 46.5641 13.3947V13.3674C46.5641 12.4298 46.3645 11.6287 45.9655 10.9642C45.5665 10.2997 45.0042 9.79454 44.2787 9.44863C43.5623 9.10273 42.7279 8.92978 41.7757 8.92978C40.8325 8.92978 39.9982 9.10728 39.2727 9.46229C38.5563 9.80819 37.994 10.3134 37.5859 10.9779C37.1869 11.6333 36.9873 12.4298 36.9873 13.3674V13.3947C36.9873 14.3414 37.1869 15.1469 37.5859 15.8114C37.994 16.4668 38.5563 16.972 39.2727 17.327C39.9982 17.673 40.8371 17.8459 41.7893 17.8459Z" fill="#1DBF73"/>
<path d="M53.0936 20.6586V6.10338H57.4195V8.87516H57.5011C57.9636 7.87386 58.6665 7.10468 59.6096 6.56762C60.5618 6.03056 61.6683 5.76203 62.9288 5.76203C63.8266 5.76203 64.6292 5.89857 65.3366 6.17165C66.053 6.44473 66.6607 6.83615 67.1594 7.3459C67.6582 7.84655 68.0391 8.45644 68.3021 9.17555H68.3837C68.7193 8.43823 69.1727 7.81925 69.7441 7.3186C70.3245 6.80884 70.9956 6.42198 71.7574 6.158C72.5282 5.89402 73.358 5.76203 74.2468 5.76203C75.5617 5.76203 76.6772 6.0169 77.5932 6.52666C78.5182 7.03641 79.2165 7.76008 79.6881 8.69766C80.1687 9.63524 80.409 10.7503 80.409 12.0429V20.6586H76.0832V12.9441C76.0832 12.1157 75.9562 11.4148 75.7023 10.8414C75.4484 10.2588 75.0675 9.8173 74.5596 9.5169C74.0608 9.21651 73.426 9.06632 72.6552 9.06632C71.8571 9.06632 71.1724 9.23472 70.6011 9.57152C70.0297 9.90832 69.5944 10.3862 69.2952 11.0052C68.9959 11.6151 68.8463 12.3342 68.8463 13.1625V20.6586H64.6564V12.9031C64.6564 12.0839 64.5295 11.3921 64.2756 10.8277C64.0307 10.2542 63.6543 9.8173 63.1465 9.5169C62.6386 9.21651 62.0038 9.06632 61.242 9.06632C60.453 9.06632 59.7683 9.23472 59.1879 9.57152C58.6166 9.90832 58.1767 10.3862 57.8684 11.0052C57.5691 11.6242 57.4195 12.3524 57.4195 13.1899V20.6586H53.0936Z" fill="#1DBF73"/>
<path d="M83.1297 20.6586V6.11703H87.4692V20.6586H83.1297ZM85.3062 4.24642C84.617 4.24642 84.0457 4.04161 83.5922 3.63199C83.1478 3.22237 82.9257 2.71717 82.9257 2.11638C82.9257 1.52471 83.1478 1.02406 83.5922 0.614434C84.0457 0.204811 84.617 0 85.3062 0C85.9955 0 86.5623 0.204811 87.0066 0.614434C87.451 1.02406 87.6732 1.52471 87.6732 2.11638C87.6732 2.71717 87.451 3.22237 87.0066 3.63199C86.5623 4.04161 85.9955 4.24642 85.3062 4.24642Z" fill="#1DBF73"/>
<path d="M98.243 21C96.4927 21 94.9963 20.8179 93.7539 20.4538C92.5114 20.0897 91.5456 19.5663 90.8564 18.8836C90.1671 18.1918 89.7636 17.3635 89.6457 16.3986L89.6321 16.2893H93.8763L93.8899 16.3849C94.0441 17.013 94.4885 17.4818 95.223 17.7913C95.9576 18.0917 96.9824 18.2419 98.2974 18.2419C99.0682 18.2419 99.7167 18.1782 100.243 18.0507C100.778 17.9142 101.181 17.7185 101.453 17.4636C101.734 17.2087 101.875 16.9038 101.875 16.5488V16.5351C101.875 16.0891 101.689 15.7568 101.317 15.5384C100.945 15.3108 100.288 15.1424 99.3448 15.0332L95.3727 14.6372C94.1937 14.5007 93.2097 14.2549 92.4208 13.8999C91.6318 13.5358 91.0423 13.067 90.6523 12.4935C90.2624 11.92 90.0674 11.2373 90.0674 10.4454V10.4317C90.0674 9.45774 90.3712 8.62484 90.9788 7.93303C91.5864 7.23212 92.4616 6.69506 93.6042 6.32185C94.7469 5.94863 96.1118 5.76203 97.6988 5.76203C99.3675 5.76203 100.787 5.94863 101.957 6.32185C103.127 6.69506 104.029 7.22302 104.664 7.90572C105.308 8.58843 105.666 9.39402 105.738 10.3225V10.4727H101.739L101.725 10.3908C101.635 9.80819 101.24 9.35306 100.542 9.02536C99.8527 8.69766 98.9186 8.53381 97.7396 8.53381C96.996 8.53381 96.3702 8.60208 95.8624 8.73862C95.3545 8.86606 94.9691 9.05722 94.7061 9.31209C94.4431 9.55787 94.3116 9.85826 94.3116 10.2133V10.2269C94.3116 10.5091 94.3932 10.7503 94.5565 10.9506C94.7288 11.1508 94.9963 11.3147 95.3591 11.4421C95.7309 11.5605 96.2206 11.656 96.8282 11.7289L100.868 12.1248C102.773 12.3251 104.138 12.7575 104.963 13.422C105.797 14.0774 106.214 14.9967 106.214 16.1801V16.1938C106.214 17.186 105.897 18.0416 105.262 18.7607C104.627 19.4798 103.716 20.0351 102.528 20.4265C101.34 20.8088 99.9116 21 98.243 21Z" fill="#1DBF73"/>
<path d="M116.879 21C114.975 21 113.338 20.7042 111.969 20.1125C110.599 19.5117 109.543 18.6469 108.799 17.5182C108.065 16.3895 107.697 15.0286 107.697 13.4356V13.422C107.697 11.8563 108.074 10.5 108.826 9.35306C109.579 8.20611 110.626 7.32315 111.969 6.70416C113.32 6.07607 114.889 5.76658 116.675 5.77568C118.507 5.78479 120.081 6.10793 121.396 6.74512C122.72 7.38231 123.736 8.27893 124.443 9.43498C125.159 10.591 125.518 11.9428 125.518 13.4902V14.3505H109.915V11.9337H122.756L121.423 13.7497V12.8758C121.423 12.0202 121.237 11.2828 120.865 10.6638C120.493 10.0449 119.958 9.56697 119.26 9.23017C118.562 8.89337 117.727 8.72497 116.757 8.72497C115.741 8.72497 114.871 8.88882 114.145 9.21651C113.42 9.54421 112.862 10.0312 112.472 10.6775C112.091 11.3147 111.901 12.1021 111.901 13.0397V13.7087C111.901 14.7555 112.123 15.5975 112.567 16.2347C113.021 16.8719 113.628 17.3362 114.39 17.6274C115.161 17.9187 116.032 18.0644 117.002 18.0644C117.655 18.0644 118.258 17.9915 118.811 17.8459C119.373 17.7003 119.859 17.4954 120.267 17.2315C120.675 16.9584 120.979 16.6352 121.178 16.262L121.233 16.1801H125.3L125.259 16.3166C125.041 17.054 124.683 17.7139 124.184 18.2965C123.695 18.87 123.083 19.3615 122.348 19.7711C121.622 20.1717 120.797 20.4766 119.872 20.686C118.947 20.8953 117.95 21 116.879 21Z" fill="#1DBF73"/>
<path d="M137.203 20.6586V17.4363H147.174C148.326 17.4363 149.21 17.2087 149.827 16.7536C150.452 16.2984 150.765 15.6339 150.765 14.7601V14.7464C150.765 14.1547 150.616 13.6632 150.316 13.2718C150.026 12.8713 149.595 12.5754 149.024 12.3843C148.462 12.184 147.768 12.0839 146.943 12.0839H137.203V9.18921H146.331C147.473 9.18921 148.357 8.96619 148.983 8.52016C149.609 8.07412 149.922 7.44603 149.922 6.63589V6.60858C149.922 5.81665 149.65 5.21586 149.106 4.80624C148.571 4.38752 147.827 4.17815 146.875 4.17815H137.203V0.955787H148.085C149.373 0.955787 150.484 1.15605 151.418 1.55657C152.361 1.94798 153.087 2.51235 153.595 3.24967C154.112 3.97789 154.37 4.84265 154.37 5.84395V5.87126C154.37 6.61769 154.207 7.29584 153.88 7.90572C153.563 8.5065 153.11 9.0117 152.52 9.42133C151.931 9.83095 151.241 10.1086 150.452 10.2542V10.3225C151.45 10.4317 152.312 10.7003 153.037 11.1281C153.772 11.5468 154.334 12.0975 154.724 12.7802C155.123 13.4629 155.322 14.2412 155.322 15.1151V15.1424C155.322 16.2984 155.037 17.2906 154.465 18.119C153.894 18.9382 153.073 19.5663 152.003 20.0033C150.942 20.4402 149.668 20.6586 148.181 20.6586H137.203ZM134.945 20.6586V0.955787H139.393V20.6586H134.945Z" fill="#1DBF73"/>
<path d="M166.055 21C164.205 21 162.591 20.6905 161.213 20.0715C159.834 19.4525 158.764 18.5741 158.002 17.4363C157.24 16.2984 156.86 14.9512 156.86 13.3947V13.3674C156.86 11.8108 157.24 10.4636 158.002 9.32575C158.773 8.18791 159.848 7.30949 161.226 6.69051C162.605 6.07152 164.214 5.76203 166.055 5.76203C167.905 5.76203 169.52 6.07152 170.898 6.69051C172.277 7.30949 173.347 8.18791 174.109 9.32575C174.879 10.4636 175.265 11.8108 175.265 13.3674V13.3947C175.265 14.9603 174.879 16.3121 174.109 17.4499C173.347 18.5787 172.277 19.4525 170.898 20.0715C169.52 20.6905 167.905 21 166.055 21ZM166.069 17.8459C167.012 17.8459 167.842 17.673 168.558 17.327C169.284 16.972 169.846 16.4668 170.245 15.8114C170.644 15.1469 170.844 14.3414 170.844 13.3947V13.3674C170.844 12.4298 170.644 11.6287 170.245 10.9642C169.846 10.2997 169.284 9.79454 168.558 9.44863C167.842 9.10273 167.008 8.92978 166.055 8.92978C165.112 8.92978 164.278 9.10728 163.552 9.46229C162.836 9.80819 162.274 10.3134 161.866 10.9779C161.467 11.6333 161.267 12.4298 161.267 13.3674V13.3947C161.267 14.3414 161.467 15.1469 161.866 15.8114C162.274 16.4668 162.836 16.972 163.552 17.327C164.278 17.673 165.117 17.8459 166.069 17.8459Z" fill="#1DBF73"/>
<path d="M177.373 20.6586V6.11703H181.699V8.95709H181.781C182.307 7.96489 183.087 7.18661 184.121 6.62224C185.154 6.04876 186.397 5.76203 187.848 5.76203C189.934 5.76203 191.552 6.34005 192.704 7.4961C193.865 8.64304 194.445 10.2588 194.445 12.3433V20.6586H190.106V13.2035C190.106 11.8472 189.775 10.8186 189.113 10.1177C188.451 9.41677 187.471 9.06632 186.175 9.06632C185.277 9.06632 184.488 9.24837 183.808 9.61248C183.137 9.96749 182.615 10.4727 182.243 11.1281C181.881 11.7744 181.699 12.5436 181.699 13.4356V20.6586H177.373Z" fill="#1DBF73"/>
<path d="M204.267 21C202.689 21 201.315 20.6814 200.145 20.0442C198.984 19.407 198.087 18.5195 197.452 17.3817C196.817 16.2347 196.5 14.9057 196.5 13.3947V13.3674C196.5 11.8563 196.817 10.5319 197.452 9.39402C198.087 8.24707 198.984 7.35501 200.145 6.71782C201.315 6.08062 202.684 5.76203 204.253 5.76203C205.269 5.76203 206.185 5.88947 207.001 6.14434C207.817 6.39922 208.525 6.75878 209.123 7.22302C209.731 7.67815 210.221 8.20611 210.593 8.80689H210.674V0.955787H215V20.6586H210.674V17.9688H210.593C210.221 18.5696 209.736 19.0975 209.137 19.5527C208.538 20.0078 207.831 20.3628 207.015 20.6177C206.199 20.8726 205.283 21 204.267 21ZM205.75 17.7913C206.747 17.7913 207.613 17.6138 208.348 17.2588C209.092 16.8947 209.663 16.3849 210.062 15.7295C210.47 15.065 210.674 14.2867 210.674 13.3947V13.3674C210.674 12.4844 210.47 11.7152 210.062 11.0598C209.654 10.3953 209.083 9.88557 208.348 9.53056C207.613 9.16645 206.747 8.9844 205.75 8.9844C204.743 8.9844 203.877 9.1619 203.152 9.5169C202.435 9.86281 201.882 10.3635 201.492 11.0189C201.102 11.6743 200.907 12.4571 200.907 13.3674V13.3947C200.907 14.3049 201.102 15.0878 201.492 15.7432C201.882 16.3986 202.435 16.9038 203.152 17.2588C203.877 17.6138 204.743 17.7913 205.75 17.7913Z" fill="#1DBF73"/>
</svg>
