<svg width="20" height="20" viewBox="0 0 20 20" fill="none" xmlns="http://www.w3.org/2000/svg">
<path d="M9.55579 18.9798C9.67329 19.0998 9.83329 19.1665 10.0008 19.1665C10.1683 19.1665 10.3283 19.0998 10.4458 18.9798L18.4408 10.879C20.5166 8.77651 20.5166 5.354 18.4408 3.25067C17.4325 2.229 16.0916 1.6665 14.6641 1.6665C13.2366 1.6665 11.8966 2.229 10.8883 3.24984L10.0008 4.14984L9.11329 3.25067C8.10495 2.229 6.76412 1.6665 5.33745 1.6665C3.90995 1.6665 2.56912 2.229 1.56078 3.25067C-0.515052 5.354 -0.515052 8.7765 1.56078 10.8782L9.55579 18.9798ZM2.44995 4.12817C3.22162 3.34734 4.24745 2.9165 5.33662 2.9165C6.42662 2.9165 7.45162 3.34734 8.22245 4.129L9.55495 5.479C9.78912 5.7165 10.21 5.7165 10.4441 5.479L11.7766 4.12817C12.55 3.34734 13.575 2.9165 14.6641 2.9165C15.7541 2.9165 16.7791 3.34734 17.5508 4.12817C19.1483 5.74734 19.1483 8.38151 17.5508 10.0015L10.0008 17.6523L2.44995 10.0007C0.852448 8.38234 0.852448 5.74734 2.44995 4.12817Z" fill="#1F4B3F"/>
</svg>
