<svg width="20" height="20" viewBox="0 0 18 20" fill="none" xmlns="http://www.w3.org/2000/svg">
<path d="M15.125 19.375H2.875C1.71875 19.375 0.75 18.4375 0.75 17.25V7.78125C0.75 7.15625 1.03125 6.5625 1.53125 6.15625L7.65625 1.09375C8.4375 0.4375 9.5625 0.4375 10.3437 1.09375L16.4687 6.125C16.9688 6.53125 17.25 7.125 17.25 7.75V17.2188C17.25 18.4375 16.2812 19.375 15.125 19.375ZM9 1.875C8.8125 1.875 8.59375 1.9375 8.4375 2.0625L2.3125 7.125C2.125 7.28125 2 7.53125 2 7.78125V17.25C2 17.7188 2.375 18.125 2.875 18.125H15.125C15.5937 18.125 16 17.75 16 17.25V7.78125C16 7.53125 15.875 7.28125 15.6875 7.125L9.5625 2.0625C9.40625 1.9375 9.1875 1.875 9 1.875Z" fill="#1DBF73"/>
<path d="M12.75 16.625H5.25C4.90625 16.625 4.625 16.3438 4.625 16C4.625 15.6562 4.90625 15.375 5.25 15.375H12.75C13.0938 15.375 13.375 15.6562 13.375 16C13.375 16.3438 13.0938 16.625 12.75 16.625Z" fill="#1DBF73"/>
</svg>
