<svg width="20" height="20" viewBox="0 0 20 20" fill="none" xmlns="http://www.w3.org/2000/svg">
<g clip-path="url(#clip0_220_1488)">
<path d="M19.025 0.975013C18.7161 0.664887 18.3489 0.419045 17.9445 0.251694C17.54 0.0843434 17.1064 -0.00119828 16.6688 1.26793e-05H3.33125C2.44775 1.26793e-05 1.60043 0.350983 0.975701 0.975713C0.35097 1.60044 0 2.44776 0 3.33126L0 16.6688C0 17.5523 0.35097 18.3996 0.975701 19.0243C1.60043 19.649 2.44775 20 3.33125 20H16.6688C17.5523 20 18.3996 19.649 19.0243 19.0243C19.649 18.3996 20 17.5523 20 16.6688V3.33126C20.0012 2.89358 19.9157 2.45999 19.7483 2.05556C19.581 1.65113 19.3351 1.28387 19.025 0.975013ZM18.6688 16.6625C18.6688 17.1929 18.458 17.7017 18.083 18.0767C17.7079 18.4518 17.1992 18.6625 16.6688 18.6625H3.33125C2.80082 18.6625 2.29211 18.4518 1.91704 18.0767C1.54196 17.7017 1.33125 17.1929 1.33125 16.6625V3.33126C1.33125 2.80083 1.54196 2.29212 1.91704 1.91705C2.29211 1.54198 2.80082 1.33126 3.33125 1.33126H16.6688C17.1992 1.33126 17.7079 1.54198 18.083 1.91705C18.458 2.29212 18.6688 2.80083 18.6688 3.33126V16.6625Z" fill="#1DBF73"/>
<path d="M6.66692 2.94355H4.66692C4.57409 2.93455 4.4804 2.94506 4.39187 2.97441C4.30335 3.00377 4.22194 3.05131 4.15288 3.114C4.08382 3.17668 4.02863 3.25312 3.99087 3.3384C3.9531 3.42368 3.93359 3.51591 3.93359 3.60918C3.93359 3.70245 3.9531 3.79468 3.99087 3.87996C4.02863 3.96524 4.08382 4.04168 4.15288 4.10436C4.22194 4.16705 4.30335 4.21459 4.39187 4.24395C4.4804 4.2733 4.57409 4.28381 4.66692 4.2748H6.66692C6.83233 4.25876 6.98583 4.1817 7.09753 4.05865C7.20922 3.93559 7.27109 3.77536 7.27109 3.60918C7.27109 3.443 7.20922 3.28276 7.09753 3.15971C6.98583 3.03666 6.83233 2.9596 6.66692 2.94355Z" fill="#1DBF73"/>
<path d="M10.4991 10.6688H9.49905C9.27776 10.6688 9.06554 10.5809 8.90906 10.4244C8.75258 10.268 8.66468 10.0557 8.66468 9.83445C8.66468 9.61316 8.75258 9.40093 8.90906 9.24446C9.06554 9.08798 9.27776 9.00007 9.49905 9.00007H11.1303C11.2957 8.98403 11.4492 8.90697 11.5609 8.78392C11.6726 8.66086 11.7345 8.50063 11.7345 8.33445C11.7345 8.16826 11.6726 8.00803 11.5609 7.88498C11.4492 7.76193 11.2957 7.68487 11.1303 7.66882H10.6616V7.33757C10.6455 7.17217 10.5684 7.01866 10.4454 6.90697C10.3223 6.79527 10.1621 6.7334 9.99593 6.7334C9.82974 6.7334 9.66951 6.79527 9.54646 6.90697C9.42341 7.01866 9.34635 7.17217 9.3303 7.33757V7.68757C8.77222 7.73008 8.25236 7.9873 7.88001 8.40517C7.50766 8.82304 7.31183 9.36899 7.33368 9.92826C7.35553 10.4875 7.59337 11.0165 7.99719 11.4041C8.40101 11.7916 8.93936 12.0075 9.49905 12.0063H10.4991C10.7203 12.0063 10.9326 12.0942 11.089 12.2507C11.2455 12.4072 11.3334 12.6194 11.3334 12.8407C11.3334 13.062 11.2455 13.2742 11.089 13.4307C10.9326 13.5872 10.7203 13.6751 10.4991 13.6751H8.8678C8.70239 13.6911 8.54889 13.7682 8.43719 13.8912C8.3255 14.0143 8.26363 14.1745 8.26363 14.3407C8.26363 14.5069 8.3255 14.6671 8.43719 14.7902C8.54889 14.9132 8.70239 14.9903 8.8678 15.0063H9.33655V15.3376C9.3526 15.503 9.42966 15.6565 9.55271 15.7682C9.67576 15.8799 9.83599 15.9417 10.0022 15.9417C10.1684 15.9417 10.3286 15.8799 10.4516 15.7682C10.5747 15.6565 10.6518 15.503 10.6678 15.3376V15.0001C11.2259 14.9576 11.7457 14.7003 12.1181 14.2825C12.4904 13.8646 12.6863 13.3187 12.6644 12.7594C12.6426 12.2001 12.4047 11.6711 12.0009 11.2836C11.5971 10.896 11.0587 10.6802 10.4991 10.6813V10.6688Z" fill="#1DBF73"/>
</g>
<defs>
<clipPath id="clip0_220_1488">
<rect width="20" height="20" fill="white"/>
</clipPath>
</defs>
</svg>
