<svg width="20" height="20" viewBox="0 0 20 20" fill="none" xmlns="http://www.w3.org/2000/svg">
<g clip-path="url(#clip0_220_1537)">
<path d="M18.0008 13.3313C17.8234 13.3313 17.6533 13.4017 17.5279 13.5271C17.4025 13.6525 17.332 13.8226 17.332 14C17.3304 15.2377 16.838 16.4243 15.9628 17.2995C15.0876 18.1747 13.901 18.6671 12.6633 18.6688H7.33203C6.09539 18.6654 4.91044 18.1723 4.03659 17.2973C3.16274 16.4223 2.67118 15.2366 2.66953 14V6C2.67118 4.76228 3.1636 3.57572 4.0388 2.70052C4.91401 1.82532 6.10056 1.3329 7.33828 1.33125H12.6695C13.9062 1.33456 15.0911 1.8277 15.965 2.70272C16.8388 3.57775 17.3304 4.76336 17.332 6C17.323 6.09283 17.3335 6.18652 17.3629 6.27505C17.3922 6.36357 17.4398 6.44498 17.5025 6.51404C17.5652 6.5831 17.6416 6.63829 17.7269 6.67605C17.8122 6.71382 17.9044 6.73333 17.9977 6.73333C18.0909 6.73333 18.1832 6.71382 18.2684 6.67605C18.3537 6.63829 18.4302 6.5831 18.4928 6.51404C18.5555 6.44498 18.6031 6.36357 18.6324 6.27505C18.6618 6.18652 18.6723 6.09283 18.6633 6C18.6616 4.41029 18.0298 2.88607 16.9063 1.76139C15.7828 0.63671 14.2592 0.00330759 12.6695 0L7.33203 0C5.74124 0.00165449 4.21608 0.634327 3.09122 1.75919C1.96636 2.88405 1.33369 4.40921 1.33203 6V14C1.33369 15.5908 1.96636 17.116 3.09122 18.2408C4.21608 19.3657 5.74124 19.9983 7.33203 20H12.6633C14.2541 19.9983 15.7792 19.3657 16.9041 18.2408C18.029 17.116 18.6616 15.5908 18.6633 14C18.6633 13.8237 18.5937 13.6546 18.4696 13.5293C18.3456 13.4041 18.1771 13.3329 18.0008 13.3313Z" fill="#1DBF73"/>
<path d="M18.0011 9.33146H10.2761L11.8074 7.80021C11.9001 7.67045 11.9434 7.51184 11.9294 7.35297C11.9155 7.19411 11.8452 7.04546 11.7314 6.93383C11.6175 6.8222 11.4674 6.75495 11.3083 6.7442C11.1492 6.73345 10.9915 6.77991 10.8636 6.87521L8.19487 9.54396C8.07007 9.66929 8 9.83896 8 10.0158C8 10.1927 8.07007 10.3624 8.19487 10.4877L10.8636 13.1252C10.9913 13.2372 11.1568 13.2965 11.3265 13.291C11.4962 13.2854 11.6575 13.2155 11.7776 13.0954C11.8977 12.9753 11.9676 12.8141 11.9731 12.6443C11.9786 12.4746 11.9194 12.3091 11.8074 12.1815L10.2761 10.6502H18.0011C18.1665 10.6342 18.32 10.5571 18.4317 10.4341C18.5434 10.311 18.6053 10.1508 18.6053 9.98459C18.6053 9.8184 18.5434 9.65817 18.4317 9.53512C18.32 9.41207 18.1665 9.33501 18.0011 9.31896V9.33146Z" fill="#1DBF73"/>
</g>
<defs>
<clipPath id="clip0_220_1537">
<rect width="20" height="20" fill="white"/>
</clipPath>
</defs>
</svg>
