<svg width="20" height="20" viewBox="0 0 20 20" fill="none" xmlns="http://www.w3.org/2000/svg">
<g clip-path="url(#clip0_220_1533)">
<path d="M14 20H6C4.40921 19.9983 2.88405 19.3657 1.75919 18.2408C0.634327 17.116 0.00165449 15.5908 0 14V6C0.00165449 4.40921 0.634327 2.88405 1.75919 1.75919C2.88405 0.634327 4.40921 0.00165449 6 0L14 0C15.5908 0.00165449 17.116 0.634327 18.2408 1.75919C19.3657 2.88405 19.9983 4.40921 20 6V14C19.9983 15.5908 19.3657 17.116 18.2408 18.2408C17.116 19.3657 15.5908 19.9983 14 20ZM6 1.33125C4.76228 1.3329 3.57572 1.82532 2.70052 2.70052C1.82532 3.57572 1.3329 4.76228 1.33125 6V14C1.3329 15.2377 1.82532 16.4243 2.70052 17.2995C3.57572 18.1747 4.76228 18.6671 6 18.6688H14C15.2377 18.6671 16.4243 18.1747 17.2995 17.2995C18.1747 16.4243 18.6671 15.2377 18.6688 14V6C18.6671 4.76228 18.1747 3.57572 17.2995 2.70052C16.4243 1.82532 15.2377 1.3329 14 1.33125H6Z" fill="#1DBF73"/>
<path d="M10 11.3311C9.20888 11.3311 8.43552 11.0965 7.77772 10.6569C7.11992 10.2174 6.60723 9.59269 6.30448 8.86179C6.00173 8.13089 5.92252 7.32662 6.07686 6.55069C6.2312 5.77477 6.61217 5.06204 7.17158 4.50263C7.73099 3.94322 8.44372 3.56226 9.21964 3.40792C9.99556 3.25357 10.7998 3.33279 11.5307 3.63554C12.2616 3.93829 12.8864 4.45098 13.3259 5.10878C13.7654 5.76657 14 6.53993 14 7.33106C13.9983 8.39141 13.5764 9.40787 12.8266 10.1577C12.0768 10.9074 11.0604 11.3294 10 11.3311ZM10 4.66856C9.47217 4.66856 8.9562 4.82508 8.51732 5.11832C8.07845 5.41157 7.73639 5.82837 7.5344 6.31602C7.33241 6.80367 7.27956 7.34027 7.38253 7.85795C7.48551 8.37564 7.73968 8.85117 8.11291 9.2244C8.48614 9.59763 8.96167 9.8518 9.47935 9.95478C9.99704 10.0578 10.5336 10.0049 11.0213 9.80291C11.5089 9.60092 11.9257 9.25886 12.219 8.81998C12.5122 8.38111 12.6688 7.86514 12.6688 7.33731C12.6688 6.62951 12.3876 5.9507 11.8871 5.45022C11.3866 4.94973 10.7078 4.66856 10 4.66856Z" fill="#1DBF73"/>
<path d="M14.6758 15.4127C14.5091 15.4131 14.3484 15.3506 14.2258 15.2377C13.3669 14.4372 12.2373 13.9908 11.0633 13.9877H8.94451C7.77045 13.9908 6.64088 14.4372 5.782 15.2377C5.71805 15.3016 5.6418 15.3518 5.55788 15.3854C5.47395 15.419 5.38409 15.4353 5.29371 15.4331C5.20334 15.431 5.11433 15.4106 5.03207 15.3731C4.94981 15.3356 4.876 15.2819 4.81511 15.215C4.75421 15.1482 4.7075 15.0698 4.67778 14.9844C4.64807 14.899 4.63597 14.8085 4.64223 14.7183C4.64848 14.6281 4.67295 14.5402 4.71416 14.4597C4.75538 14.3792 4.81247 14.308 4.882 14.2502C5.98936 13.2314 7.43975 12.6668 8.94451 12.669H11.057C12.5656 12.6687 14.0187 13.2378 15.1258 14.2627C15.223 14.354 15.2907 14.4723 15.3202 14.6024C15.3497 14.7325 15.3396 14.8685 15.2912 14.9928C15.2428 15.1171 15.1584 15.2241 15.0487 15.3001C14.939 15.376 14.8091 15.4174 14.6758 15.419V15.4127Z" fill="#1DBF73"/>
</g>
<defs>
<clipPath id="clip0_220_1533">
<rect width="20" height="20" fill="white"/>
</clipPath>
</defs>
</svg>
