<svg width="40" height="41" viewBox="0 0 40 41" fill="none" xmlns="http://www.w3.org/2000/svg">
<g clip-path="url(#clip0_232_3240)">
<path d="M33.2394 25.6228L32.8906 25.4366V20.8386H24.247V19.0185C26.6718 17.6534 28.2004 15.0767 28.2004 12.2554L28.2053 6.55062C28.2063 5.62656 28.0155 4.73398 27.6384 3.89797C26.5984 1.59055 24.2915 0.0996094 21.7613 0.0996094H18.2425C14.6898 0.0996094 11.7994 2.99039 11.7994 6.54352V12.2544C11.7994 15.0766 13.328 17.6534 15.7528 19.0185V20.8386H7.10938V25.4366L6.76039 25.623C4.0843 27.0523 2.42188 29.825 2.42188 32.859V40.0996H37.5781V32.859C37.5781 29.825 35.9157 27.0523 33.2394 25.6228ZM18.2425 2.44336H21.7613C23.0316 2.44336 24.2131 3.0343 24.9806 4.005L21.4185 6.28414C20.2662 7.02148 18.9339 7.41125 17.5659 7.41125H14.1431V6.54352C14.1431 4.28273 15.9821 2.44336 18.2425 2.44336ZM17.3939 17.2209C15.4191 16.3581 14.1431 14.4086 14.1431 12.2544V9.75492H17.5659C19.3824 9.75492 21.1515 9.23742 22.6817 8.25828L25.8486 6.23203C25.8564 6.3368 25.8616 6.44203 25.8615 6.54828L25.8566 12.2544C25.8566 14.4086 24.5805 16.3581 22.6059 17.2209L21.9031 17.528V20.8386H18.0965V17.528L17.3939 17.2209ZM30.5469 23.1823V33.0684H9.45312V23.1823H30.5469ZM4.76562 37.7559V32.859C4.76562 30.9938 5.64578 29.2675 7.10938 28.1716V37.7559H4.76562ZM9.45312 37.7559V35.4121H30.5469V37.7559H9.45312ZM35.2344 37.7559H32.8906V28.1716C34.3543 29.2677 35.2344 30.9939 35.2344 32.8591V37.7559Z" fill="#1F4B3F"/>
<path d="M18.8281 25.5146H21.1719V27.8584H18.8281V25.5146Z" fill="#1F4B3F"/>
</g>
<defs>
<clipPath id="clip0_232_3240">
<rect width="40" height="40" fill="white" transform="translate(0 0.0996094)"/>
</clipPath>
</defs>
</svg>
