<svg width="58" height="52" viewBox="0 0 58 52" fill="none" xmlns="http://www.w3.org/2000/svg">
<circle cx="38" cy="31.9995" r="20" fill="#1DBF73" fill-opacity="0.08"/>
<path d="M31.4015 9.78835V4.58835H34.0459V2.22168H5.95703V4.58835H8.60148V9.78835C8.60318 10.7642 8.83077 11.7264 9.26642 12.5997C9.70207 13.4729 10.334 14.2334 11.1126 14.8217L18.0237 19.9995L11.1126 25.1772C10.334 25.7655 9.70207 26.526 9.26642 27.3993C8.83077 28.2725 8.60318 29.2347 8.60148 30.2106V35.4106H5.95703V37.7772H34.0459V35.4106H31.4015V30.2106C31.3998 29.2347 31.1722 28.2725 30.7365 27.3993C30.3009 26.526 29.669 25.7655 28.8904 25.1772L21.9793 19.9995L28.8904 14.8217C29.669 14.2334 30.3009 13.4729 30.7365 12.5997C31.1722 11.7264 31.3998 10.7642 31.4015 9.78835ZM27.457 27.0772C27.9419 27.4435 28.3355 27.9169 28.6073 28.4604C28.8791 29.004 29.0216 29.6029 29.0237 30.2106V35.4106H10.9793V31.855H25.9237V29.4772H11.1126C11.2892 28.5181 11.8159 27.6588 12.5904 27.0661L20.0459 21.5106L27.457 27.0772ZM27.457 12.9328L20.0015 18.4883L12.5459 12.9328C12.0596 12.5653 11.665 12.0902 11.3932 11.5446C11.1214 10.999 10.9797 10.3979 10.9793 9.78835V4.58835H29.0237V8.1439H14.0793V10.5217H28.8904C28.7226 11.4702 28.2126 12.3242 27.457 12.9217V12.9328Z" fill="#1F4B3F"/>
</svg>
