<svg width="20" height="20" viewBox="0 0 20 20" fill="none" xmlns="http://www.w3.org/2000/svg">
<path d="M5.26172 7.3335H14.7451V8.51683H5.26172V7.3335Z" fill="#1DBF73"/>
<path d="M5.26172 10.2944H10.0006V11.4778H5.26172V10.2944Z" fill="#1DBF73"/>
<path d="M18.3649 3.11132C18.2005 2.94565 18.0049 2.8142 17.7894 2.72457C17.5739 2.63493 17.3428 2.58889 17.1094 2.58909H10.5927V1.40576H9.40382V2.59465H2.88715C2.41566 2.59465 1.96347 2.78195 1.63007 3.11535C1.29668 3.44875 1.10938 3.90093 1.10938 4.37243V13.8502C1.10917 14.0836 1.15521 14.3147 1.24485 14.5302C1.33448 14.7457 1.46593 14.9414 1.6316 15.1058C1.96506 15.4383 2.41621 15.626 2.88715 15.628H9.40382V17.4058H7.62604V18.5891H12.3649V17.4058H10.5872V15.628H17.1094C17.5809 15.628 18.0331 15.4407 18.3665 15.1073C18.6999 14.7739 18.8872 14.3217 18.8872 13.8502V4.37243C18.8866 3.89956 18.6988 3.44614 18.3649 3.11132ZM17.6983 13.8502C17.6983 14.0069 17.6364 14.1573 17.5261 14.2686C17.4158 14.3799 17.2661 14.4432 17.1094 14.4447H2.88715C2.7295 14.4447 2.5783 14.382 2.46682 14.2705C2.35534 14.1591 2.29271 14.0079 2.29271 13.8502V4.37243C2.29271 4.21477 2.35534 4.06357 2.46682 3.95209C2.5783 3.84061 2.7295 3.77798 2.88715 3.77798H17.1094C17.267 3.77798 17.4182 3.84061 17.5297 3.95209C17.6412 4.06357 17.7038 4.21477 17.7038 4.37243L17.6983 13.8502Z" fill="#1DBF73"/>
</svg>
