<svg width="20" height="20" viewBox="0 0 20 20" fill="none" xmlns="http://www.w3.org/2000/svg">
<path d="M16.8882 4.59466C16.7238 4.42899 16.5282 4.29754 16.3127 4.20791C16.0972 4.11827 15.866 4.07223 15.6326 4.07244H15.0382V2.88911C15.0382 2.41761 14.8509 1.96543 14.5175 1.63203C14.1841 1.29863 13.7319 1.11133 13.2604 1.11133H4.37153C3.90003 1.11133 3.44785 1.29863 3.11445 1.63203C2.78105 1.96543 2.59375 2.41761 2.59375 2.88911V14.7391C2.59375 15.2106 2.78105 15.6628 3.11445 15.9962C3.44785 16.3296 3.90003 16.5169 4.37153 16.5169H5.55486V17.1113C5.55486 17.5828 5.74216 18.035 6.07556 18.3684C6.40896 18.7018 6.86114 18.8891 7.33264 18.8891H15.6271C16.0986 18.8891 16.5508 18.7018 16.8842 18.3684C17.2176 18.035 17.4049 17.5828 17.4049 17.1113V5.85022C17.4058 5.6172 17.3606 5.38631 17.272 5.17083C17.1833 4.95534 17.0529 4.75953 16.8882 4.59466ZM4.37153 15.3336C4.21387 15.3336 4.06267 15.2709 3.95119 15.1594C3.83971 15.048 3.77708 14.8968 3.77708 14.7391V2.88911C3.77708 2.73145 3.83971 2.58025 3.95119 2.46877C4.06267 2.35729 4.21387 2.29466 4.37153 2.29466H13.2604C13.4171 2.29613 13.5669 2.3594 13.6772 2.47072C13.7874 2.58204 13.8493 2.73241 13.8493 2.88911V4.07244H7.33264C6.86114 4.07244 6.40896 4.25974 6.07556 4.59314C5.74216 4.92654 5.55486 5.37872 5.55486 5.85022V15.3336H4.37153ZM16.2215 17.1113C16.2215 17.269 16.1589 17.4202 16.0474 17.5317C15.9359 17.6431 15.7847 17.7058 15.6271 17.7058H7.33264C7.17498 17.7058 7.02378 17.6431 6.9123 17.5317C6.80082 17.4202 6.73819 17.269 6.73819 17.1113V5.85022C6.73966 5.69353 6.80293 5.54375 6.91426 5.43347C7.02558 5.32319 7.17594 5.26132 7.33264 5.26133H15.6271C15.7847 5.26133 15.9359 5.32396 16.0474 5.43544C16.1589 5.54692 16.2215 5.69812 16.2215 5.85577V17.1113Z" fill="#1DBF73"/>
<path d="M8.51562 7.92773H14.4434V9.11107H8.51562V7.92773Z" fill="#1DBF73"/>
<path d="M8.51562 10.8887H14.4434V12.072H8.51562V10.8887Z" fill="#1DBF73"/>
<path d="M8.51562 13.8501H14.4434V15.0334H8.51562V13.8501Z" fill="#1DBF73"/>
</svg>
