<svg width="20" height="20" viewBox="0 0 20 20" fill="none" xmlns="http://www.w3.org/2000/svg">
<path d="M18.0205 1.97801C17.7459 1.70234 17.4195 1.48381 17.06 1.33506C16.7005 1.1863 16.3151 1.11026 15.926 1.11134H4.07049C3.2856 1.11281 2.53328 1.42525 1.97829 1.98025C1.42329 2.53525 1.11084 3.28757 1.10938 4.07245V15.928C1.11084 16.7129 1.42329 17.4652 1.97829 18.0202C2.53328 18.5752 3.2856 18.8876 4.07049 18.8891H15.926C16.7114 18.8891 17.4646 18.5771 18.0199 18.0218C18.5752 17.4665 18.8872 16.7133 18.8872 15.928V4.07245C18.8885 3.68335 18.8126 3.29785 18.6639 2.93831C18.5151 2.57878 18.2964 2.25236 18.0205 1.97801ZM2.81493 2.8169C2.97915 2.65098 3.17473 2.51937 3.39027 2.42971C3.60582 2.34006 3.83704 2.29416 4.07049 2.29467H15.926C16.3975 2.29467 16.8497 2.48197 17.1831 2.81537C17.5165 3.14877 17.7038 3.60095 17.7038 4.07245V5.85023H2.29271V4.07245C2.2925 3.83905 2.33854 3.60792 2.42818 3.39242C2.51781 3.17691 2.64926 2.9813 2.81493 2.8169ZM17.1816 17.1836C17.0174 17.3495 16.8218 17.4811 16.6063 17.5707C16.3907 17.6604 16.1595 17.7063 15.926 17.7058H10.5927V13.5558L12.0149 14.6225L12.726 13.6725L10.3538 11.8947C10.2511 11.818 10.1264 11.7766 9.99826 11.7766C9.87012 11.7766 9.7454 11.818 9.64271 11.8947L7.27049 13.6725L7.9816 14.6225L9.40382 13.5558V17.7058H4.07049C3.59899 17.7058 3.14681 17.5185 2.81341 17.1851C2.48001 16.8517 2.29271 16.3995 2.29271 15.928V7.03912H17.7038V15.928C17.7043 16.1615 17.6584 16.3927 17.5688 16.6082C17.4791 16.8238 17.3475 17.0193 17.1816 17.1836Z" fill="#1DBF73"/>
</svg>
