<svg width="22" height="22" viewBox="0 0 22 22" fill="none" xmlns="http://www.w3.org/2000/svg">
<path d="M8.69231 15.6154H13.3077M11 21C13.6522 21 16.1957 19.9464 18.0711 18.0711C19.9464 16.1957 21 13.6522 21 11C21 8.34784 19.9464 5.8043 18.0711 3.92893C16.1957 2.05357 13.6522 1 11 1C8.34784 1 5.8043 2.05357 3.92893 3.92893C2.05357 5.8043 1 8.34784 1 11C1 13.6522 2.05357 16.1957 3.92893 18.0711C5.8043 19.9464 8.34784 21 11 21Z" stroke="#1DBF73" stroke-width="1.2" stroke-linecap="round" stroke-linejoin="round"/>
<path d="M10.9994 15.6154V10.2308H9.46094M10.9994 6.76923C10.8974 6.76923 10.7996 6.72871 10.7274 6.65658C10.6553 6.58445 10.6148 6.48662 10.6148 6.38462C10.6148 6.28261 10.6553 6.18478 10.7274 6.11265C10.7996 6.04052 10.8974 6 10.9994 6C11.1014 6 11.1992 6.04052 11.2714 6.11265C11.3435 6.18478 11.384 6.28261 11.384 6.38462C11.384 6.48662 11.3435 6.58445 11.2714 6.65658C11.1992 6.72871 11.1014 6.76923 10.9994 6.76923Z" stroke="#1DBF73" stroke-width="1.2" stroke-linecap="round" stroke-linejoin="round"/>
</svg>
