<svg width="20" height="20" viewBox="0 0 20 20" fill="none" xmlns="http://www.w3.org/2000/svg">
<g clip-path="url(#clip0_220_1517)">
<path d="M0.675 19.6625C0.497056 19.6625 0.326308 19.5922 0.199899 19.467C0.0734902 19.3418 0.00164762 19.1717 0 18.9937L0 10.3313C0 9.44775 0.35097 8.60043 0.9757 7.9757C1.60043 7.35097 2.44775 7 3.33125 7H10C10.8835 7 11.7308 7.35097 12.3555 7.9757C12.9803 8.60043 13.3312 9.44775 13.3312 10.3313V14.3312C13.3312 15.2148 12.9803 16.0621 12.3555 16.6868C11.7308 17.3115 10.8835 17.6625 10 17.6625H3.55625L1.05625 19.5375C0.944956 19.6172 0.811882 19.6608 0.675 19.6625ZM3.3375 8.3375C2.80707 8.3375 2.29836 8.54821 1.92329 8.92329C1.54821 9.29836 1.3375 9.80707 1.3375 10.3375V17.6625L2.9375 16.4625C3.05323 16.3768 3.19351 16.3308 3.3375 16.3312H10C10.5304 16.3312 11.0391 16.1205 11.4142 15.7455C11.7893 15.3704 12 14.8617 12 14.3312V10.3313C12 9.80082 11.7893 9.29211 11.4142 8.91704C11.0391 8.54196 10.5304 8.33125 10 8.33125L3.3375 8.3375Z" fill="#1DBF73"/>
<path d="M19.3234 12.9937C19.1794 12.9946 19.039 12.9485 18.9234 12.8624L16.4234 10.9874H15.3234C15.2306 10.9964 15.1369 10.9859 15.0484 10.9565C14.9599 10.9272 14.8785 10.8796 14.8094 10.817C14.7403 10.7543 14.6852 10.6778 14.6474 10.5926C14.6096 10.5073 14.5901 10.415 14.5901 10.3218C14.5901 10.2285 14.6096 10.1363 14.6474 10.051C14.6852 9.96572 14.7403 9.88929 14.8094 9.8266C14.8785 9.76392 14.9599 9.71637 15.0484 9.68702C15.1369 9.65766 15.2306 9.64715 15.3234 9.65616H16.6609C16.805 9.65525 16.9454 9.70133 17.0609 9.78741L18.6609 10.9874V3.66866C18.6609 3.13823 18.4502 2.62952 18.0752 2.25444C17.7001 1.87937 17.1914 1.66866 16.6609 1.66866H9.99844C9.468 1.66866 8.9593 1.87937 8.58422 2.25444C8.20915 2.62952 7.99844 3.13823 7.99844 3.66866V4.99991C8.00744 5.09274 7.99693 5.18643 7.96758 5.27495C7.93823 5.36348 7.89068 5.44489 7.82799 5.51395C7.76531 5.58301 7.68887 5.6382 7.60359 5.67596C7.51831 5.71372 7.42608 5.73323 7.33281 5.73323C7.23955 5.73323 7.14731 5.71372 7.06203 5.67596C6.97675 5.6382 6.90031 5.58301 6.83763 5.51395C6.77495 5.44489 6.7274 5.36348 6.69805 5.27495C6.66869 5.18643 6.65818 5.09274 6.66719 4.99991V3.66866C6.66719 2.78516 7.01816 1.93784 7.64289 1.31311C8.26762 0.688378 9.11494 0.337408 9.99844 0.337408H16.6609C17.0989 0.336586 17.5328 0.422145 17.9377 0.589188C18.3426 0.756231 18.7105 1.00148 19.0205 1.3109C19.3305 1.62031 19.5765 1.98783 19.7443 2.3924C19.9121 2.79697 19.9984 3.23067 19.9984 3.66866V12.3312C19.9952 12.508 19.9226 12.6765 19.7964 12.8004C19.6701 12.9243 19.5003 12.9937 19.3234 12.9937Z" fill="#1DBF73"/>
<path d="M7.9927 11.6811H3.99895C3.90612 11.6901 3.81243 11.6796 3.7239 11.6502C3.63538 11.6208 3.55397 11.5733 3.48491 11.5106C3.41585 11.4479 3.36066 11.3715 3.3229 11.2862C3.28513 11.2009 3.26562 11.1087 3.26562 11.0154C3.26562 10.9222 3.28513 10.8299 3.3229 10.7446C3.36066 10.6594 3.41585 10.5829 3.48491 10.5202C3.55397 10.4576 3.63538 10.41 3.7239 10.3807C3.81243 10.3513 3.90612 10.3408 3.99895 10.3498H7.9927C8.08553 10.3408 8.17922 10.3513 8.26775 10.3807C8.35627 10.41 8.43768 10.4576 8.50674 10.5202C8.5758 10.5829 8.63099 10.6594 8.66875 10.7446C8.70652 10.8299 8.72602 10.9222 8.72602 11.0154C8.72602 11.1087 8.70652 11.2009 8.66875 11.2862C8.63099 11.3715 8.5758 11.4479 8.50674 11.5106C8.43768 11.5733 8.35627 11.6208 8.26775 11.6502C8.17922 11.6796 8.08553 11.6901 7.9927 11.6811Z" fill="#1DBF73"/>
<path d="M5.99895 14.3437H3.99895C3.90612 14.3527 3.81243 14.3421 3.7239 14.3128C3.63538 14.2834 3.55397 14.2359 3.48491 14.1732C3.41585 14.1105 3.36066 14.0341 3.3229 13.9488C3.28513 13.8635 3.26562 13.7713 3.26562 13.678C3.26562 13.5848 3.28513 13.4925 3.3229 13.4072C3.36066 13.322 3.41585 13.2455 3.48491 13.1828C3.55397 13.1202 3.63538 13.0726 3.7239 13.0433C3.81243 13.0139 3.90612 13.0034 3.99895 13.0124H5.99895C6.09178 13.0034 6.18547 13.0139 6.274 13.0433C6.36252 13.0726 6.44393 13.1202 6.51299 13.1828C6.58205 13.2455 6.63724 13.322 6.675 13.4072C6.71277 13.4925 6.73227 13.5848 6.73227 13.678C6.73227 13.7713 6.71277 13.8635 6.675 13.9488C6.63724 14.0341 6.58205 14.1105 6.51299 14.1732C6.44393 14.2359 6.36252 14.2834 6.274 14.3128C6.18547 14.3421 6.09178 14.3527 5.99895 14.3437Z" fill="#1DBF73"/>
</g>
<defs>
<clipPath id="clip0_220_1517">
<rect width="20" height="20" fill="white"/>
</clipPath>
</defs>
</svg>
