<svg width="22" height="22" viewBox="0 0 22 22" fill="none" xmlns="http://www.w3.org/2000/svg">
<path d="M11 5V17M14 8.5C14 7.12 12.657 6 11 6C9.343 6 8 7.12 8 8.5C8 9.88 9.343 11 11 11C12.657 11 14 12.12 14 13.5C14 14.88 12.657 16 11 16C9.343 16 8 14.88 8 13.5" stroke="#1DBF73" stroke-width="1.2" stroke-linecap="round"/>
<path d="M6 2.33801C7.51945 1.45874 9.24448 0.997119 11 1.00001C16.523 1.00001 21 5.47701 21 11C21 16.523 16.523 21 11 21C5.477 21 1 16.523 1 11C1 9.17901 1.487 7.47001 2.338 6.00001" stroke="#1DBF73" stroke-width="1.2" stroke-linecap="round"/>
</svg>
