<svg width="20" height="20" viewBox="0 0 20 20" fill="none" xmlns="http://www.w3.org/2000/svg">
<path d="M15.926 18.8891H4.07049C3.28515 18.8891 2.53198 18.5771 1.97666 18.0218C1.42135 17.4665 1.10938 16.7133 1.10938 15.928V4.07244C1.10937 3.2871 1.42135 2.53393 1.97666 1.97862C2.53198 1.4233 3.28515 1.11133 4.07049 1.11133H15.926C16.7114 1.11133 17.4646 1.4233 18.0199 1.97862C18.5752 2.53393 18.8872 3.2871 18.8872 4.07244V15.928C18.8872 16.7133 18.5752 17.4665 18.0199 18.0218C17.4646 18.5771 16.7114 18.8891 15.926 18.8891ZM4.07049 2.29466C3.59899 2.29466 3.14681 2.48196 2.81341 2.81536C2.48001 3.14876 2.29271 3.60094 2.29271 4.07244V15.928C2.29271 16.3995 2.48001 16.8517 2.81341 17.1851C3.14681 17.5185 3.59899 17.7058 4.07049 17.7058H15.926C16.3975 17.7058 16.8497 17.5185 17.1831 17.1851C17.5165 16.8517 17.7038 16.3995 17.7038 15.928V4.07244C17.7038 3.60094 17.5165 3.14876 17.1831 2.81536C16.8497 2.48196 16.3975 2.29466 15.926 2.29466H4.07049Z" fill="#1DBF73"/>
<path fill-rule="evenodd" clip-rule="evenodd" d="M4.07032 14.3665C4.07 14.3127 4.08443 14.2598 4.11202 14.2137C4.13962 14.1675 4.17933 14.1298 4.22685 14.1046C4.27436 14.0794 4.32787 14.0677 4.38157 14.0708C4.43526 14.0739 4.48709 14.0916 4.53143 14.122L5.48143 14.7554C5.52271 14.7821 5.55664 14.8187 5.58013 14.8619C5.60363 14.905 5.61594 14.9534 5.61594 15.0026C5.61594 15.0517 5.60363 15.1001 5.58013 15.1433C5.55664 15.1865 5.52271 15.2231 5.48143 15.2498L4.53143 15.8776C4.48709 15.908 4.43526 15.9257 4.38157 15.9288C4.32787 15.9319 4.27436 15.9202 4.22685 15.895C4.17933 15.8698 4.13962 15.8321 4.11202 15.7859C4.08443 15.7398 4.07 15.6869 4.07032 15.6331V14.3665Z" fill="#1DBF73"/>
<path d="M7.03906 14.4058H15.928V15.5891H7.03906V14.4058Z" fill="#1DBF73"/>
<path d="M12.4624 12.3723H7.54019C7.17883 12.3741 6.83091 12.2355 6.56975 11.9857C6.30859 11.7359 6.15458 11.3945 6.14019 11.0335L5.97352 6.99457C5.96572 6.82077 6.01074 6.64868 6.10266 6.50096C6.19458 6.35325 6.32908 6.23685 6.48846 6.16708C6.64784 6.09731 6.82461 6.07746 6.99549 6.11014C7.16637 6.14281 7.32335 6.22648 7.44575 6.35012L7.87908 6.78346C7.90113 6.80623 7.92815 6.8236 7.95803 6.8342C7.9879 6.84481 8.01983 6.84835 8.0513 6.84457C8.08263 6.84142 8.11286 6.83131 8.13978 6.81497C8.16669 6.79863 8.18961 6.77647 8.20686 6.75012L9.27352 5.08346C9.35628 4.96763 9.46549 4.87323 9.59207 4.80809C9.71865 4.74296 9.85895 4.70898 10.0013 4.70898C10.1437 4.70898 10.284 4.74296 10.4105 4.80809C10.5371 4.87323 10.6463 4.96763 10.7291 5.08346L11.7957 6.75012C11.8121 6.77779 11.8346 6.80124 11.8616 6.8186C11.8887 6.83597 11.9194 6.84677 11.9513 6.85012C11.9828 6.85391 12.0147 6.85036 12.0446 6.83976C12.0745 6.82916 12.1015 6.81179 12.1235 6.78901L12.5569 6.35568C12.6793 6.23204 12.8362 6.14837 13.0071 6.11569C13.178 6.08302 13.3548 6.10287 13.5141 6.17264C13.6735 6.2424 13.808 6.35881 13.8999 6.50652C13.9919 6.65423 14.0369 6.82632 14.0291 7.00012L13.8624 11.039C13.8466 11.3991 13.692 11.7391 13.431 11.9877C13.17 12.2363 12.8229 12.3741 12.4624 12.3723ZM7.19575 7.75012L7.32908 10.9835C7.33053 11.0385 7.35341 11.0908 7.39284 11.1292C7.43228 11.1676 7.48515 11.189 7.54019 11.189H12.4624C12.5175 11.189 12.5703 11.1676 12.6098 11.1292C12.6492 11.0908 12.6721 11.0385 12.6735 10.9835L12.8069 7.75568C12.6524 7.8705 12.476 7.95225 12.2885 7.99582C12.1011 8.0394 11.9067 8.04386 11.7174 8.00893C11.5282 7.974 11.3482 7.90043 11.1886 7.79281C11.0291 7.6852 10.8935 7.54584 10.7902 7.38346L10.0013 6.11124L9.20686 7.35568C9.10359 7.51807 8.96795 7.65742 8.80841 7.76503C8.64887 7.87265 8.46886 7.94622 8.27962 7.98115C8.09037 8.01608 7.89596 8.01162 7.70852 7.96805C7.52107 7.92447 7.34462 7.84272 7.19019 7.7279L7.19575 7.75012Z" fill="#1DBF73"/>
<path d="M9.31589 8.93327L9.78811 8.30549C9.81359 8.27313 9.84607 8.24697 9.88312 8.22899C9.92017 8.211 9.96082 8.20166 10.002 8.20166C10.0432 8.20166 10.0838 8.211 10.1209 8.22899C10.1579 8.24697 10.1904 8.27313 10.2159 8.30549L10.6881 8.93327C10.7233 8.97962 10.7423 9.0362 10.7423 9.09438C10.7423 9.15255 10.7233 9.20913 10.6881 9.25549L10.2159 9.88327C10.1904 9.91563 10.1579 9.94178 10.1209 9.95977C10.0838 9.97775 10.0432 9.98709 10.002 9.98709C9.96082 9.98709 9.92017 9.97775 9.88312 9.95977C9.84607 9.94178 9.81359 9.91563 9.78811 9.88327L9.31589 9.25549C9.28074 9.20913 9.26172 9.15255 9.26172 9.09438C9.26172 9.0362 9.28074 8.97962 9.31589 8.93327Z" fill="#1DBF73"/>
</svg>
