<svg width="14" height="13" viewBox="0 0 14 13" fill="none" xmlns="http://www.w3.org/2000/svg">
<path d="M7.125 3.29688C5.375 3.29688 3.98047 4.71875 3.98047 6.44141C3.98047 8.19141 5.375 9.58594 7.125 9.58594C8.84766 9.58594 10.2695 8.19141 10.2695 6.44141C10.2695 4.71875 8.84766 3.29688 7.125 3.29688ZM7.125 8.49219C6.00391 8.49219 5.07422 7.58984 5.07422 6.44141C5.07422 5.32031 5.97656 4.41797 7.125 4.41797C8.24609 4.41797 9.14844 5.32031 9.14844 6.44141C9.14844 7.58984 8.24609 8.49219 7.125 8.49219ZM11.1172 3.1875C11.1172 2.77734 10.7891 2.44922 10.3789 2.44922C9.96875 2.44922 9.64062 2.77734 9.64062 3.1875C9.64062 3.59766 9.96875 3.92578 10.3789 3.92578C10.7891 3.92578 11.1172 3.59766 11.1172 3.1875ZM13.1953 3.92578C13.1406 2.94141 12.9219 2.06641 12.2109 1.35547C11.5 0.644531 10.625 0.425781 9.64062 0.371094C8.62891 0.316406 5.59375 0.316406 4.58203 0.371094C3.59766 0.425781 2.75 0.644531 2.01172 1.35547C1.30078 2.06641 1.08203 2.94141 1.02734 3.92578C0.972656 4.9375 0.972656 7.97266 1.02734 8.98438C1.08203 9.96875 1.30078 10.8164 2.01172 11.5547C2.75 12.2656 3.59766 12.4844 4.58203 12.5391C5.59375 12.5938 8.62891 12.5938 9.64062 12.5391C10.625 12.4844 11.5 12.2656 12.2109 11.5547C12.9219 10.8164 13.1406 9.96875 13.1953 8.98438C13.25 7.97266 13.25 4.9375 13.1953 3.92578ZM11.8828 10.0508C11.6914 10.5977 11.2539 11.0078 10.7344 11.2266C9.91406 11.5547 8 11.4727 7.125 11.4727C6.22266 11.4727 4.30859 11.5547 3.51562 11.2266C2.96875 11.0078 2.55859 10.5977 2.33984 10.0508C2.01172 9.25781 2.09375 7.34375 2.09375 6.44141C2.09375 5.56641 2.01172 3.65234 2.33984 2.83203C2.55859 2.3125 2.96875 1.90234 3.51562 1.68359C4.30859 1.35547 6.22266 1.4375 7.125 1.4375C8 1.4375 9.91406 1.35547 10.7344 1.68359C11.2539 1.875 11.6641 2.3125 11.8828 2.83203C12.2109 3.65234 12.1289 5.56641 12.1289 6.44141C12.1289 7.34375 12.2109 9.25781 11.8828 10.0508Z" fill="white"/>
</svg>
