<svg width="13" height="13" viewBox="0 0 13 13" fill="none" xmlns="http://www.w3.org/2000/svg">
<path d="M2.73438 12.6914V4.51562H0.191406V12.6914H2.73438ZM1.44922 3.42188C2.26953 3.42188 2.92578 2.73828 2.92578 1.91797C2.92578 1.125 2.26953 0.46875 1.44922 0.46875C0.65625 0.46875 0 1.125 0 1.91797C0 2.73828 0.65625 3.42188 1.44922 3.42188ZM12.2227 12.6914H12.25V8.20703C12.25 6.01953 11.7578 4.32422 9.1875 4.32422C7.95703 4.32422 7.13672 5.00781 6.78125 5.63672H6.75391V4.51562H4.32031V12.6914H6.86328V8.64453C6.86328 7.57812 7.05469 6.56641 8.36719 6.56641C9.67969 6.56641 9.70703 7.76953 9.70703 8.72656V12.6914H12.2227Z" fill="white"/>
</svg>
