<svg width="155" height="24" viewBox="0 0 155 24" fill="none" xmlns="http://www.w3.org/2000/svg">
<path d="M1.5409 14.7244V12.4305H7.59246C8.45163 12.4305 9.11157 12.2308 9.57229 11.8313C10.0392 11.4318 10.2727 10.8607 10.2727 10.1179V10.0992C10.2727 9.36261 10.0392 8.7946 9.57229 8.39512C9.11157 7.99564 8.45163 7.7959 7.59246 7.7959H1.5409V5.4552H8.09676C9.18628 5.4552 10.1264 5.6487 10.9171 6.0357C11.7078 6.41645 12.3179 6.95325 12.7475 7.6461C13.1771 8.3327 13.3919 9.13791 13.3919 10.0617V10.0804C13.3919 10.998 13.1771 11.8063 12.7475 12.5054C12.3179 13.2045 11.7078 13.7507 10.9171 14.1439C10.1264 14.5309 9.18628 14.7244 8.09676 14.7244H1.5409ZM0 18.9657V5.4552H3.07247V18.9657H0Z" fill="#1DBF73"/>
<path d="M14.8674 18.9657V8.99434L17.8465 9.00371V11.0167H17.9025C18.108 10.3114 18.4846 9.76521 19.0325 9.37822C19.5804 8.98498 20.2559 8.78836 21.059 8.78836C21.2458 8.78836 21.4232 8.80085 21.5913 8.82581C21.7657 8.84454 21.9182 8.86951 22.0489 8.90072V11.3163C21.8871 11.2789 21.7003 11.2508 21.4886 11.2321C21.2832 11.2133 21.0715 11.204 20.8536 11.204C20.2434 11.204 19.7111 11.3163 19.2566 11.541C18.8084 11.7657 18.4597 12.1028 18.2107 12.5522C17.9679 12.9954 17.8465 13.5478 17.8465 14.2094V18.9657H14.8674Z" fill="#1DBF73"/>
<path d="M28.6795 19.1998C27.4094 19.1998 26.3012 18.9876 25.3549 18.5631C24.4086 18.1387 23.6739 17.5363 23.1509 16.7561C22.628 15.9759 22.3665 15.0521 22.3665 13.9847V13.966C22.3665 12.8986 22.628 11.9748 23.1509 11.1946C23.6801 10.4144 24.4179 9.81203 25.3642 9.38758C26.3106 8.96313 27.4157 8.75091 28.6795 8.75091C29.9496 8.75091 31.0578 8.96313 32.0041 9.38758C32.9505 9.81203 33.6851 10.4144 34.2081 11.1946C34.7373 11.9748 35.0019 12.8986 35.0019 13.966V13.9847C35.0019 15.0583 34.7373 15.9852 34.2081 16.7655C33.6851 17.5395 32.9505 18.1387 32.0041 18.5631C31.0578 18.9876 29.9496 19.1998 28.6795 19.1998ZM28.6888 17.037C29.3363 17.037 29.906 16.9184 30.3979 16.6812C30.8959 16.4378 31.2819 16.0914 31.5559 15.6419C31.8298 15.1863 31.9668 14.6339 31.9668 13.9847V13.966C31.9668 13.3231 31.8298 12.7738 31.5559 12.3181C31.2819 11.8625 30.8959 11.5161 30.3979 11.2789C29.906 11.0417 29.3332 10.9231 28.6795 10.9231C28.032 10.9231 27.4592 11.0448 26.9612 11.2882C26.4693 11.5254 26.0833 11.8718 25.8032 12.3275C25.5292 12.7769 25.3922 13.3231 25.3922 13.966V13.9847C25.3922 14.6339 25.5292 15.1863 25.8032 15.6419C26.0833 16.0914 26.4693 16.4378 26.9612 16.6812C27.4592 16.9184 28.0351 17.037 28.6888 17.037Z" fill="#1DBF73"/>
<path d="M36.4494 18.9657V8.98498H39.4191V10.8856H39.4752C39.7927 10.199 40.2752 9.67159 40.9227 9.30332C41.5764 8.93505 42.336 8.75091 43.2014 8.75091C43.8177 8.75091 44.3687 8.84454 44.8543 9.03179C45.3462 9.21905 45.7633 9.48745 46.1057 9.837C46.4482 10.1803 46.7097 10.5985 46.8902 11.0916H46.9462C47.1766 10.586 47.4879 10.1616 47.8801 9.81827C48.2786 9.46873 48.7393 9.20345 49.2623 9.02243C49.7915 8.84142 50.3611 8.75091 50.9713 8.75091C51.874 8.75091 52.6398 8.92568 53.2686 9.27523C53.9037 9.62477 54.383 10.121 54.7068 10.7639C55.0368 11.4068 55.2018 12.1715 55.2018 13.0578V18.9657H52.232V13.6757C52.232 13.1077 52.1448 12.6271 51.9705 12.2339C51.7962 11.8344 51.5347 11.5317 51.1861 11.3257C50.8436 11.1197 50.4078 11.0167 49.8786 11.0167C49.3307 11.0167 48.8607 11.1322 48.4685 11.3631C48.0762 11.5941 47.7774 11.9218 47.5719 12.3462C47.3665 12.7644 47.2638 13.2575 47.2638 13.8256V18.9657H44.3874V13.6477C44.3874 13.0859 44.3002 12.6115 44.1259 12.2245C43.9578 11.8313 43.6994 11.5317 43.3508 11.3257C43.0021 11.1197 42.5663 11.0167 42.0434 11.0167C41.5017 11.0167 41.0317 11.1322 40.6332 11.3631C40.241 11.5941 39.939 11.9218 39.7273 12.3462C39.5219 12.7707 39.4191 13.27 39.4191 13.8443V18.9657H36.4494Z" fill="#1DBF73"/>
<path d="M57.0695 18.9657V8.99434H60.0486V18.9657H57.0695ZM58.5637 7.71164C58.0906 7.71164 57.6983 7.5712 57.387 7.29031C57.082 7.00943 56.9294 6.663 56.9294 6.25104C56.9294 5.84532 57.082 5.50202 57.387 5.22113C57.6983 4.94025 58.0906 4.7998 58.5637 4.7998C59.0369 4.7998 59.426 4.94025 59.7311 5.22113C60.0361 5.50202 60.1887 5.84532 60.1887 6.25104C60.1887 6.663 60.0361 7.00943 59.7311 7.29031C59.426 7.5712 59.0369 7.71164 58.5637 7.71164Z" fill="#1DBF73"/>
<path d="M67.4449 19.1998C66.2433 19.1998 65.2161 19.075 64.3631 18.8253C63.5102 18.5756 62.8471 18.2167 62.374 17.7486C61.9008 17.2742 61.6237 16.7062 61.5428 16.0445L61.5335 15.9696H64.4472L64.4565 16.0352C64.5624 16.4659 64.8674 16.7873 65.3717 16.9995C65.876 17.2055 66.5795 17.3085 67.4823 17.3085C68.0115 17.3085 68.4566 17.2648 68.8177 17.1774C69.1851 17.0838 69.4621 16.9496 69.6489 16.7748C69.8419 16.6001 69.9384 16.391 69.9384 16.1475V16.1382C69.9384 15.8323 69.8108 15.6045 69.5555 15.4547C69.3003 15.2986 68.8489 15.1832 68.2014 15.1083L65.4744 14.8367C64.6651 14.7431 63.9896 14.5746 63.4479 14.3311C62.9063 14.0815 62.5016 13.76 62.2339 13.3668C61.9662 12.9735 61.8323 12.5054 61.8323 11.9624V11.953C61.8323 11.2851 62.0409 10.714 62.458 10.2396C62.8751 9.75897 63.4759 9.3907 64.2604 9.13479C65.0449 8.87887 65.9819 8.75091 67.0714 8.75091C68.2169 8.75091 69.1913 8.87887 69.9944 9.13479C70.7976 9.3907 71.4171 9.75273 71.8529 10.2209C72.2949 10.689 72.5408 11.2414 72.5906 11.8781V11.9811H69.845L69.8357 11.9249C69.7734 11.5254 69.5026 11.2133 69.0232 10.9886C68.55 10.7639 67.9088 10.6516 67.0994 10.6516C66.5889 10.6516 66.1593 10.6984 65.8106 10.792C65.462 10.8794 65.1974 11.0105 65.0168 11.1852C64.8363 11.3538 64.746 11.5598 64.746 11.8032V11.8125C64.746 12.006 64.8021 12.1715 64.9141 12.3088C65.0324 12.4461 65.2161 12.5585 65.4651 12.6458C65.7204 12.727 66.0566 12.7925 66.4737 12.8425L69.2473 13.114C70.5548 13.2513 71.4918 13.5478 72.0583 14.0034C72.6311 14.4529 72.9175 15.0833 72.9175 15.8947V15.9041C72.9175 16.5845 72.6996 17.1712 72.2638 17.6643C71.828 18.1574 71.2023 18.5382 70.3867 18.8066C69.5711 19.0687 68.5905 19.1998 67.4449 19.1998Z" fill="#1DBF73"/>
<path d="M80.2391 19.1998C78.9317 19.1998 77.8079 18.9969 76.8678 18.5912C75.9277 18.1793 75.2024 17.5863 74.6919 16.8123C74.1876 16.0383 73.9354 15.1051 73.9354 14.0128V14.0034C73.9354 12.9298 74.1938 11.9998 74.7105 11.2133C75.2273 10.4269 75.9464 9.82139 76.8678 9.39694C77.7955 8.96625 78.8725 8.75403 80.099 8.76027C81.3567 8.76652 82.4369 8.9881 83.3396 9.42503C84.2486 9.86196 84.9459 10.4768 85.4315 11.2695C85.9233 12.0622 86.1693 12.9891 86.1693 14.0503V14.6401H75.4576V12.9829H84.2735L83.3583 14.2282V13.6289C83.3583 13.0422 83.2307 12.5366 82.9754 12.1122C82.7201 11.6877 82.3528 11.36 81.8734 11.1291C81.394 10.8981 80.8212 10.7826 80.1551 10.7826C79.4578 10.7826 78.8601 10.895 78.362 11.1197C77.8639 11.3444 77.4811 11.6783 77.2133 12.1215C76.9519 12.5585 76.8211 13.0984 76.8211 13.7413V14.2001C76.8211 14.9179 76.9736 15.4953 77.2787 15.9322C77.59 16.3691 78.0071 16.6875 78.5301 16.8872C79.0593 17.0869 79.657 17.1868 80.3232 17.1868C80.7714 17.1868 81.1855 17.1369 81.5652 17.037C81.9512 16.9371 82.2843 16.7967 82.5645 16.6157C82.8447 16.4284 83.0532 16.2068 83.1902 15.9509L83.2275 15.8947H86.0199L85.9918 15.9884C85.8424 16.494 85.5965 16.9465 85.2541 17.346C84.9179 17.7392 84.4976 18.0763 83.9933 18.3572C83.4953 18.6318 82.9287 18.8409 82.2937 18.9845C81.6586 19.128 80.9738 19.1998 80.2391 19.1998Z" fill="#1DBF73"/>
<path d="M94.1913 18.9657V16.7561H101.037C101.827 16.7561 102.434 16.6001 102.858 16.288C103.287 15.9759 103.502 15.5202 103.502 14.921V14.9116C103.502 14.5059 103.399 14.1689 103.194 13.9005C102.995 13.6258 102.699 13.423 102.307 13.2919C101.921 13.1546 101.444 13.0859 100.878 13.0859H94.1913V11.101H100.458C101.242 11.101 101.849 10.948 102.279 10.6422C102.708 10.3363 102.923 9.90566 102.923 9.35013V9.3314C102.923 8.78836 102.736 8.3764 102.363 8.09551C101.995 7.80839 101.485 7.66482 100.831 7.66482H94.1913V5.4552H101.662C102.546 5.4552 103.309 5.59252 103.95 5.86716C104.598 6.13557 105.096 6.52256 105.445 7.02815C105.799 7.5275 105.977 8.12048 105.977 8.80709V8.82581C105.977 9.33765 105.865 9.80267 105.641 10.2209C105.423 10.6328 105.112 10.9793 104.707 11.2601C104.302 11.541 103.829 11.7314 103.287 11.8313V11.8781C103.972 11.953 104.564 12.1371 105.062 12.4305C105.566 12.7176 105.952 13.0953 106.22 13.5634C106.494 14.0315 106.631 14.5652 106.631 15.1644V15.1832C106.631 15.9759 106.435 16.6562 106.042 17.2243C105.65 17.786 105.087 18.2167 104.352 18.5163C103.624 18.8159 102.749 18.9657 101.728 18.9657H94.1913ZM92.6411 18.9657V5.4552H95.6949V18.9657H92.6411Z" fill="#1DBF73"/>
<path d="M113.999 19.1998C112.729 19.1998 111.621 18.9876 110.674 18.5631C109.728 18.1387 108.993 17.5363 108.47 16.7561C107.947 15.9759 107.686 15.0521 107.686 13.9847V13.966C107.686 12.8986 107.947 11.9748 108.47 11.1946C109 10.4144 109.737 9.81203 110.684 9.38758C111.63 8.96313 112.735 8.75091 113.999 8.75091C115.269 8.75091 116.377 8.96313 117.324 9.38758C118.27 9.81203 119.005 10.4144 119.528 11.1946C120.057 11.9748 120.321 12.8986 120.321 13.966V13.9847C120.321 15.0583 120.057 15.9852 119.528 16.7655C119.005 17.5395 118.27 18.1387 117.324 18.5631C116.377 18.9876 115.269 19.1998 113.999 19.1998ZM114.008 17.037C114.656 17.037 115.225 16.9184 115.717 16.6812C116.215 16.4378 116.601 16.0914 116.875 15.6419C117.149 15.1863 117.286 14.6339 117.286 13.9847V13.966C117.286 13.3231 117.149 12.7738 116.875 12.3181C116.601 11.8625 116.215 11.5161 115.717 11.2789C115.225 11.0417 114.653 10.9231 113.999 10.9231C113.351 10.9231 112.779 11.0448 112.281 11.2882C111.789 11.5254 111.403 11.8718 111.123 12.3275C110.849 12.7769 110.712 13.3231 110.712 13.966V13.9847C110.712 14.6339 110.849 15.1863 111.123 15.6419C111.403 16.0914 111.789 16.4378 112.281 16.6812C112.779 16.9184 113.355 17.037 114.008 17.037Z" fill="#1DBF73"/>
<path d="M121.769 18.9657V8.99434H124.739V10.9418H124.795C125.156 10.2614 125.691 9.72776 126.401 9.34077C127.111 8.94753 127.964 8.75091 128.96 8.75091C130.392 8.75091 131.503 9.14727 132.294 9.93999C133.091 10.7265 133.489 11.8344 133.489 13.2638V18.9657H130.51V13.8536C130.51 12.9236 130.283 12.2183 129.828 11.7376C129.374 11.257 128.701 11.0167 127.811 11.0167C127.195 11.0167 126.653 11.1415 126.186 11.3912C125.725 11.6347 125.367 11.9811 125.112 12.4305C124.863 12.8737 124.739 13.4011 124.739 14.0128V18.9657H121.769Z" fill="#1DBF73"/>
<path d="M140.232 19.1998C139.148 19.1998 138.205 18.9813 137.402 18.5444C136.605 18.1075 135.989 17.4989 135.553 16.7187C135.117 15.9322 134.899 15.0209 134.899 13.9847V13.966C134.899 12.9298 135.117 12.0217 135.553 11.2414C135.989 10.4549 136.605 9.84324 137.402 9.40631C138.205 8.96938 139.145 8.75091 140.222 8.75091C140.92 8.75091 141.548 8.8383 142.109 9.01307C142.669 9.18784 143.155 9.4344 143.566 9.75273C143.983 10.0648 144.319 10.4269 144.574 10.8388H144.63V5.4552H147.6V18.9657H144.63V17.1213H144.574C144.319 17.5332 143.986 17.8953 143.575 18.2073C143.164 18.5194 142.678 18.7629 142.118 18.9376C141.558 19.1124 140.929 19.1998 140.232 19.1998ZM141.25 16.9995C141.934 16.9995 142.529 16.8778 143.033 16.6344C143.544 16.3847 143.936 16.0352 144.21 15.5858C144.49 15.1301 144.63 14.5964 144.63 13.9847V13.966C144.63 13.3605 144.49 12.8331 144.21 12.3837C143.93 11.928 143.538 11.5785 143.033 11.335C142.529 11.0854 141.934 10.9605 141.25 10.9605C140.559 10.9605 139.964 11.0822 139.466 11.3257C138.974 11.5629 138.594 11.9062 138.327 12.3556C138.059 12.805 137.925 13.3418 137.925 13.966V13.9847C137.925 14.6089 138.059 15.1457 138.327 15.5951C138.594 16.0445 138.974 16.391 139.466 16.6344C139.964 16.8778 140.559 16.9995 141.25 16.9995Z" fill="#1DBF73"/>
<circle cx="152.4" cy="16.7999" r="2.4" fill="#404145"/>
</svg>
