<svg width="160" height="15" viewBox="0 0 160 15" fill="none" xmlns="http://www.w3.org/2000/svg">
<circle cx="157.522" cy="12.4564" r="2.47788" fill="black"/>
<path d="M1.58906 10.313V7.9447H7.82972C8.71574 7.9447 9.3963 7.73848 9.87141 7.32604C10.3529 6.91359 10.5937 6.32393 10.5937 5.55704V5.53771C10.5937 4.77727 10.3529 4.19083 9.87141 3.77839C9.3963 3.36594 8.71574 3.15972 7.82972 3.15972H1.58906V0.743069H8.34977C9.47335 0.743069 10.4428 0.942846 11.2582 1.3424C12.0736 1.73551 12.7028 2.28973 13.1458 3.00506C13.5888 3.71394 13.8103 4.54527 13.8103 5.49904V5.51838C13.8103 6.46571 13.5888 7.30026 13.1458 8.02203C12.7028 8.7438 12.0736 9.30769 11.2582 9.71369C10.4428 10.1132 9.47335 10.313 8.34977 10.313H1.58906ZM0 14.692V0.743069H3.16848V14.692H0Z" fill="#1DBF73"/>
<path d="M15.332 14.692V4.39705L18.4042 4.40672V6.48504H18.462C18.6738 5.75682 19.0623 5.19293 19.6273 4.79338C20.1923 4.38738 20.8889 4.18438 21.7171 4.18438C21.9097 4.18438 22.0927 4.19727 22.2661 4.22305C22.4458 4.24238 22.6031 4.26816 22.738 4.30038V6.79437C22.571 6.7557 22.3784 6.7267 22.1601 6.70737C21.9482 6.68804 21.73 6.67837 21.5052 6.67837C20.876 6.67837 20.3271 6.79437 19.8584 7.02637C19.3961 7.25837 19.0366 7.60637 18.7798 8.07036C18.5294 8.52792 18.4042 9.09825 18.4042 9.78136V14.692H15.332Z" fill="#1DBF73"/>
<path d="M29.5757 14.9337C28.266 14.9337 27.1231 14.7146 26.1472 14.2763C25.1713 13.8381 24.4137 13.2162 23.8744 12.4107C23.3351 11.6051 23.0654 10.6514 23.0654 9.54936V9.53002C23.0654 8.42803 23.3351 7.47426 23.8744 6.6687C24.4201 5.86315 25.1809 5.24127 26.1568 4.80305C27.1327 4.36483 28.2724 4.14572 29.5757 4.14572C30.8855 4.14572 32.0283 4.36483 33.0042 4.80305C33.9801 5.24127 34.7377 5.86315 35.2771 6.6687C35.8228 7.47426 36.0957 8.42803 36.0957 9.53002V9.54936C36.0957 10.6578 35.8228 11.6148 35.2771 12.4203C34.7377 13.2194 33.9801 13.8381 33.0042 14.2763C32.0283 14.7146 30.8855 14.9337 29.5757 14.9337ZM29.5854 12.7007C30.2531 12.7007 30.8405 12.5782 31.3478 12.3333C31.8614 12.082 32.2595 11.7243 32.542 11.2603C32.8245 10.7899 32.9657 10.2196 32.9657 9.54936V9.53002C32.9657 8.86625 32.8245 8.29914 32.542 7.8287C32.2595 7.35826 31.8614 7.00059 31.3478 6.7557C30.8405 6.51082 30.2499 6.38837 29.5757 6.38837C28.908 6.38837 28.3173 6.51404 27.8037 6.76537C27.2965 7.01026 26.8984 7.36792 26.6095 7.83837C26.327 8.30236 26.1857 8.86625 26.1857 9.53002V9.54936C26.1857 10.2196 26.327 10.7899 26.6095 11.2603C26.8984 11.7243 27.2965 12.082 27.8037 12.3333C28.3173 12.5782 28.9112 12.7007 29.5854 12.7007Z" fill="#1DBF73"/>
<path d="M37.5884 14.692V4.38738H40.651V6.34971H40.7087C41.0362 5.64082 41.5338 5.09627 42.2015 4.71605C42.8756 4.33583 43.6589 4.14572 44.5514 4.14572C45.187 4.14572 45.7552 4.24238 46.256 4.43572C46.7632 4.62905 47.1934 4.90616 47.5465 5.26705C47.8996 5.62149 48.1693 6.05326 48.3555 6.56237H48.4133C48.6508 6.04038 48.9718 5.60216 49.3763 5.24771C49.7872 4.88683 50.2623 4.61294 50.8017 4.42605C51.3474 4.23916 51.9349 4.14572 52.5641 4.14572C53.495 4.14572 54.2847 4.32616 54.9332 4.68705C55.5881 5.04794 56.0825 5.56027 56.4163 6.22404C56.7566 6.88781 56.9268 7.67726 56.9268 8.59236V14.692H53.8642V9.23036C53.8642 8.64392 53.7743 8.1477 53.5946 7.7417C53.4148 7.32926 53.1451 7.0167 52.7856 6.80404C52.4325 6.59137 51.983 6.48504 51.4373 6.48504C50.8723 6.48504 50.3875 6.60426 49.9831 6.8427C49.5786 7.08115 49.2704 7.41948 49.0585 7.8577C48.8466 8.28947 48.7407 8.79858 48.7407 9.38502V14.692H45.7745V9.20136C45.7745 8.62136 45.6846 8.13159 45.5048 7.73203C45.3315 7.32604 45.065 7.0167 44.7055 6.80404C44.3459 6.59137 43.8965 6.48504 43.3572 6.48504C42.7986 6.48504 42.3139 6.60426 41.9029 6.8427C41.4985 7.08115 41.1871 7.41948 40.9688 7.8577C40.7569 8.29592 40.651 8.81147 40.651 9.40436V14.692H37.5884Z" fill="#1DBF73"/>
<path d="M58.8529 14.692V4.39705H61.9251V14.692H58.8529ZM60.3938 3.07272C59.9058 3.07272 59.5014 2.92772 59.1803 2.63773C58.8657 2.34773 58.7084 1.99006 58.7084 1.56473C58.7084 1.14585 58.8657 0.791402 59.1803 0.501404C59.5014 0.211405 59.9058 0.0664062 60.3938 0.0664062C60.8817 0.0664062 61.283 0.211405 61.5976 0.501404C61.9122 0.791402 62.0695 1.14585 62.0695 1.56473C62.0695 1.99006 61.9122 2.34773 61.5976 2.63773C61.283 2.92772 60.8817 3.07272 60.3938 3.07272Z" fill="#1DBF73"/>
<path d="M69.5525 14.9337C68.3134 14.9337 67.254 14.8048 66.3744 14.547C65.4948 14.2892 64.8111 13.9187 64.3231 13.4353C63.8351 12.9456 63.5494 12.3591 63.466 11.676L63.4563 11.5987H66.4611L66.4707 11.6663C66.5799 12.111 66.8945 12.4429 67.4145 12.662C67.9346 12.8747 68.6601 12.981 69.5911 12.981C70.1368 12.981 70.5959 12.9359 70.9682 12.8457C71.347 12.749 71.6328 12.6105 71.8254 12.43C72.0244 12.2496 72.1239 12.0337 72.1239 11.7823V11.7727C72.1239 11.4569 71.9923 11.2217 71.7291 11.067C71.4658 10.9059 71.0003 10.7867 70.3326 10.7094L67.5205 10.429C66.6858 10.3324 65.9892 10.1584 65.4306 9.90702C64.872 9.64925 64.4547 9.31736 64.1786 8.91136C63.9026 8.50536 63.7645 8.02203 63.7645 7.46137V7.4517C63.7645 6.76215 63.9796 6.17249 64.4098 5.68271C64.8399 5.18649 65.4595 4.80627 66.2685 4.54205C67.0775 4.27783 68.0437 4.14572 69.1673 4.14572C70.3487 4.14572 71.3535 4.27783 72.1817 4.54205C73.0099 4.80627 73.6488 5.18005 74.0982 5.66338C74.5541 6.14671 74.8077 6.71704 74.859 7.37437V7.4807H72.0276L72.018 7.4227C71.9538 7.01026 71.6745 6.68804 71.1801 6.45604C70.6922 6.22404 70.0309 6.10804 69.1962 6.10804C68.6697 6.10804 68.2267 6.15637 67.8672 6.25304C67.5076 6.34326 67.2348 6.47859 67.0486 6.65904C66.8624 6.83304 66.7693 7.0457 66.7693 7.29704V7.3067C66.7693 7.50648 66.8271 7.67726 66.9426 7.81903C67.0646 7.96081 67.254 8.07681 67.5108 8.16703C67.7741 8.25081 68.1208 8.31847 68.5509 8.37003L71.4113 8.65036C72.7595 8.79214 73.7258 9.09825 74.3101 9.56869C74.9008 10.0327 75.1961 10.6836 75.1961 11.5213V11.531C75.1961 12.2335 74.9714 12.8392 74.5219 13.3483C74.0725 13.8574 73.4273 14.2506 72.5862 14.5277C71.7451 14.7983 70.7339 14.9337 69.5525 14.9337Z" fill="#1DBF73"/>
<path d="M82.7465 14.9337C81.3982 14.9337 80.2393 14.7242 79.2699 14.3053C78.3004 13.88 77.5524 13.2678 77.0259 12.4687C76.5059 11.6696 76.2458 10.7061 76.2458 9.57836V9.56869C76.2458 8.46025 76.5123 7.50003 77.0452 6.68804C77.5781 5.87604 78.3196 5.25093 79.2699 4.81271C80.2265 4.36805 81.3372 4.14894 82.6021 4.15539C83.899 4.16183 85.0129 4.39061 85.9439 4.84171C86.8813 5.29282 87.6004 5.9276 88.1012 6.74604C88.6084 7.56448 88.862 8.52147 88.862 9.61702V10.226H77.8156V8.51503H86.907L85.9632 9.80069V9.18202C85.9632 8.57625 85.8315 8.05425 85.5683 7.61603C85.3051 7.17781 84.9263 6.83948 84.4319 6.60104C83.9375 6.3626 83.3468 6.24337 82.6599 6.24337C81.9408 6.24337 81.3244 6.35937 80.8108 6.59137C80.2971 6.82337 79.9023 7.16815 79.6262 7.6257C79.3565 8.07681 79.2217 8.63425 79.2217 9.29802V9.77169C79.2217 10.5128 79.379 11.1089 79.6936 11.56C80.0146 12.0111 80.4448 12.3398 80.9841 12.546C81.5299 12.7522 82.1462 12.8553 82.8332 12.8553C83.2955 12.8553 83.7224 12.8038 84.1141 12.7007C84.5121 12.5976 84.8556 12.4526 85.1446 12.2657C85.4335 12.0723 85.6486 11.8436 85.7898 11.5793L85.8283 11.5213H88.7079L88.679 11.618C88.5249 12.14 88.2713 12.6072 87.9182 13.0197C87.5715 13.4257 87.1381 13.7737 86.618 14.0637C86.1044 14.3472 85.5201 14.5631 84.8653 14.7113C84.2104 14.8596 83.5041 14.9337 82.7465 14.9337Z" fill="#1DBF73"/>
<path d="M97.1347 14.692V12.4107H104.194C105.009 12.4107 105.635 12.2496 106.072 11.9273C106.515 11.6051 106.736 11.1347 106.736 10.516V10.5064C106.736 10.0875 106.631 9.73947 106.419 9.46236C106.213 9.1788 105.908 8.96936 105.504 8.83403C105.106 8.69225 104.615 8.62136 104.03 8.62136H97.1347V6.57204H103.597C104.406 6.57204 105.032 6.41415 105.475 6.09837C105.918 5.7826 106.139 5.33793 106.139 4.76438V4.74505C106.139 4.18438 105.947 3.75905 105.562 3.46906C105.183 3.17261 104.656 3.02439 103.982 3.02439H97.1347V0.743069H104.839C105.751 0.743069 106.537 0.884846 107.199 1.1684C107.866 1.44551 108.38 1.84506 108.74 2.36706C109.106 2.88261 109.289 3.49483 109.289 4.20372V4.22305C109.289 4.75149 109.173 5.2316 108.942 5.66338C108.717 6.08871 108.396 6.44637 107.979 6.73637C107.561 7.02637 107.074 7.22292 106.515 7.32604V7.37437C107.221 7.4517 107.831 7.64181 108.345 7.9447C108.865 8.24114 109.263 8.63103 109.539 9.11436C109.821 9.59769 109.963 10.1487 109.963 10.7674V10.7867C109.963 11.6051 109.76 12.3076 109.356 12.894C108.952 13.474 108.37 13.9187 107.613 14.228C106.862 14.5373 105.96 14.692 104.907 14.692H97.1347ZM95.536 14.692V0.743069H98.6852V14.692H95.536Z" fill="#1DBF73"/>
<path d="M117.561 14.9337C116.252 14.9337 115.109 14.7146 114.133 14.2763C113.157 13.8381 112.399 13.2162 111.86 12.4107C111.321 11.6051 111.051 10.6514 111.051 9.54936V9.53002C111.051 8.42803 111.321 7.47426 111.86 6.6687C112.406 5.86315 113.167 5.24127 114.142 4.80305C115.118 4.36483 116.258 4.14572 117.561 4.14572C118.871 4.14572 120.014 4.36483 120.99 4.80305C121.966 5.24127 122.723 5.86315 123.263 6.6687C123.808 7.47426 124.081 8.42803 124.081 9.53002V9.54936C124.081 10.6578 123.808 11.6148 123.263 12.4203C122.723 13.2194 121.966 13.8381 120.99 14.2763C120.014 14.7146 118.871 14.9337 117.561 14.9337ZM117.571 12.7007C118.239 12.7007 118.826 12.5782 119.333 12.3333C119.847 12.082 120.245 11.7243 120.528 11.2603C120.81 10.7899 120.951 10.2196 120.951 9.54936V9.53002C120.951 8.86625 120.81 8.29914 120.528 7.8287C120.245 7.35826 119.847 7.00059 119.333 6.7557C118.826 6.51082 118.235 6.38837 117.561 6.38837C116.894 6.38837 116.303 6.51404 115.789 6.76537C115.282 7.01026 114.884 7.36792 114.595 7.83837C114.313 8.30236 114.171 8.86625 114.171 9.53002V9.54936C114.171 10.2196 114.313 10.7899 114.595 11.2603C114.884 11.7243 115.282 12.082 115.789 12.3333C116.303 12.5782 116.897 12.7007 117.571 12.7007Z" fill="#1DBF73"/>
<path d="M125.574 14.692V4.39705H128.637V6.40771H128.694C129.067 5.70527 129.619 5.15427 130.351 4.75471C131.083 4.34872 131.962 4.14572 132.99 4.14572C134.466 4.14572 135.612 4.55494 136.428 5.37338C137.25 6.18537 137.66 7.32926 137.66 8.80503V14.692H134.588V9.41402C134.588 8.45381 134.354 7.72559 133.885 7.22937C133.417 6.73315 132.723 6.48504 131.805 6.48504C131.169 6.48504 130.611 6.61393 130.129 6.8717C129.654 7.12304 129.285 7.4807 129.022 7.9447C128.765 8.40225 128.637 8.9468 128.637 9.57836V14.692H125.574Z" fill="#1DBF73"/>
<path d="M144.614 14.9337C143.497 14.9337 142.524 14.7081 141.696 14.257C140.874 13.8059 140.238 13.1776 139.789 12.372C139.339 11.56 139.115 10.6191 139.115 9.54936V9.53002C139.115 8.46025 139.339 7.52259 139.789 6.71704C140.238 5.90504 140.874 5.27349 141.696 4.82238C142.524 4.37127 143.493 4.14572 144.604 4.14572C145.323 4.14572 145.972 4.23594 146.55 4.41638C147.127 4.59683 147.628 4.85138 148.052 5.18005C148.482 5.50227 148.829 5.87604 149.092 6.30137H149.15V0.743069H152.212V14.692H149.15V12.7877H149.092C148.829 13.213 148.485 13.5868 148.062 13.909C147.638 14.2312 147.137 14.4826 146.559 14.663C145.981 14.8434 145.333 14.9337 144.614 14.9337ZM145.664 12.662C146.37 12.662 146.983 12.5363 147.503 12.285C148.029 12.0272 148.434 11.6663 148.716 11.2023C149.005 10.7319 149.15 10.1809 149.15 9.54936V9.53002C149.15 8.90492 149.005 8.36036 148.716 7.89637C148.428 7.42592 148.023 7.06504 147.503 6.8137C146.983 6.55593 146.37 6.42704 145.664 6.42704C144.951 6.42704 144.338 6.55271 143.824 6.80404C143.317 7.04893 142.925 7.40337 142.649 7.86737C142.373 8.33136 142.235 8.88558 142.235 9.53002V9.54936C142.235 10.1938 142.373 10.748 142.649 11.212C142.925 11.676 143.317 12.0337 143.824 12.285C144.338 12.5363 144.951 12.662 145.664 12.662Z" fill="#1DBF73"/>
</svg>
