<svg width="20" height="20" viewBox="0 0 20 20" fill="none" xmlns="http://www.w3.org/2000/svg">
<path d="M16.4765 5.84101L9.99993 11.5482L3.5219 5.84093C3.26396 5.61368 2.87078 5.63866 2.64362 5.89643C2.41654 6.15429 2.44126 6.54747 2.6992 6.77472L9.58866 12.8445C9.70623 12.948 9.85316 12.9998 10 12.9998C10.1469 12.9998 10.2939 12.948 10.4114 12.8444L17.2995 6.77463C17.5573 6.54747 17.5821 6.15421 17.3549 5.89635C17.1276 5.63874 16.7345 5.61385 16.4765 5.84101Z" fill="#1F4B3F"/>
<path d="M18.1333 3.19678H1.86675C0.837464 3.19678 0 4.03416 0 5.06352V14.9367C0 15.9661 0.837464 16.8035 1.86675 16.8035H18.1333C19.1625 16.8035 20 15.9661 20 14.9367V5.06352C20 4.03424 19.1625 3.19678 18.1333 3.19678ZM18.7555 14.9367C18.7555 15.2798 18.4764 15.559 18.1333 15.559H1.86675C1.5236 15.559 1.2445 15.2798 1.2445 14.9367V5.06352C1.2445 4.72046 1.5236 4.44128 1.86675 4.44128H18.1333C18.4764 4.44128 18.7555 4.72046 18.7555 5.06352V14.9367Z" fill="#1F4B3F"/>
</svg>
