<svg width="30" height="30" viewBox="0 0 30 30" fill="none" xmlns="http://www.w3.org/2000/svg">
<g clip-path="url(#clip0_214_1446)">
<path d="M28.0751 24.9623L24.3557 17.523C25.5732 15.7274 26.2852 13.5626 26.2852 11.2344C26.2852 5.03975 21.2455 0 15.0508 0C8.8561 0 3.81635 5.03975 3.81635 11.2344C3.81635 13.5626 4.5284 15.7276 5.74605 17.5234L2.02626 24.9623C1.89008 25.2349 1.90473 25.5583 2.06472 25.8174C2.22493 26.0765 2.50783 26.2344 2.81247 26.2344H7.07997L9.64048 29.6484C9.80756 29.8709 10.0685 30 10.3436 30C10.7082 30 10.9955 29.7826 11.1298 29.5141L14.6564 22.4611C14.7873 22.4657 14.9187 22.4689 15.0508 22.4689C15.1828 22.4689 15.3142 22.4657 15.4451 22.4611L18.9718 29.5141C19.1057 29.7821 19.3931 30 19.758 30C20.0329 30 20.294 29.8709 20.4609 29.6484L23.0216 26.2344H27.2891C27.5937 26.2344 27.8766 26.0765 28.0366 25.8174C28.1968 25.5583 28.2115 25.2349 28.0751 24.9623ZM10.1937 27.456L8.22255 24.8282C8.05661 24.6069 7.79615 24.4766 7.51943 24.4766H4.23452L6.96187 19.0224C8.51049 20.63 10.532 21.7793 12.8004 22.2423L10.1937 27.456ZM5.57416 11.2344C5.57416 6.00906 9.82541 1.75781 15.0508 1.75781C20.2762 1.75781 24.5274 6.00906 24.5274 11.2344C24.5274 16.4598 20.2762 20.7111 15.0508 20.7111C9.82541 20.7111 5.57416 16.4598 5.57416 11.2344ZM22.5819 24.4766C22.3054 24.4766 22.045 24.6069 21.8788 24.8282L19.9079 27.456L17.3009 22.2423C19.5696 21.779 21.5913 20.63 23.1399 19.0219L25.8668 24.4764H22.5819V24.4766Z" fill="#1F4B3F"/>
<path d="M19.5386 12.6922L21.9931 9.76256C22.1877 9.53047 22.249 9.21461 22.1554 8.92668C22.0618 8.63852 21.8265 8.41902 21.5329 8.34555L17.8252 7.41812L15.7971 4.1783C15.6364 3.92149 15.3549 3.76562 15.0521 3.76562C14.7493 3.76562 14.4677 3.92149 14.3071 4.1783L12.2794 7.41812L8.57197 8.34555C8.27809 8.41902 8.0428 8.63852 7.94918 8.92645C7.8558 9.21461 7.91691 9.53047 8.11146 9.76256L10.566 12.6922L10.3019 16.5047C10.281 16.8069 10.417 17.0984 10.6619 17.2765C11.0338 17.5468 11.4122 17.4189 11.5072 17.3807L15.0521 15.952L18.597 17.3809C18.8778 17.494 19.1971 17.4546 19.442 17.2767C19.6872 17.0987 19.8231 16.8071 19.8023 16.505L19.5386 12.6922ZM17.9637 11.8349C17.8177 12.0093 17.7449 12.2331 17.7607 12.4599L17.9518 15.2255L15.3807 14.1891C15.0958 14.0742 14.8459 14.1397 14.7236 14.1891L12.1526 15.2255L12.3442 12.4602C12.3597 12.2333 12.287 12.0093 12.1409 11.8349L10.3607 9.71014L13.0498 9.03746C13.2705 8.9823 13.4609 8.84383 13.5815 8.65111L15.0523 6.30118L16.5233 8.65111C16.6439 8.84383 16.8344 8.9823 17.055 9.03746L19.7442 9.71014L17.9637 11.8349Z" fill="#1F4B3F"/>
</g>
<defs>
<clipPath id="clip0_214_1446">
<rect width="30" height="30" fill="white"/>
</clipPath>
</defs>
</svg>
