<svg width="30" height="30" viewBox="0 0 30 30" fill="none" xmlns="http://www.w3.org/2000/svg">
<g clip-path="url(#clip0_214_1436)">
<path d="M26.4844 22.9688H26.1177C26.3196 22.1148 26.4258 21.2312 26.4258 20.332C26.4258 14.0319 21.3002 8.90625 15 8.90625C8.69982 8.90625 3.57422 14.0319 3.57422 20.332C3.57422 21.2312 3.68045 22.1148 3.8823 22.9688H3.51562C1.57711 22.9688 0 24.5459 0 26.4844C0 28.4229 1.57711 30 3.51562 30H26.4844C28.4229 30 30 28.4229 30 26.4844C30 24.5459 28.4229 22.9688 26.4844 22.9688ZM15 10.6641C20.3309 10.6641 24.668 15.0011 24.668 20.332C24.668 23.491 23.1367 26.4283 20.5593 28.2422H9.44068C6.86326 26.4283 5.33203 23.491 5.33203 20.332C5.33203 15.0011 9.66908 10.6641 15 10.6641ZM1.75781 26.4844C1.75781 25.5151 2.54637 24.7266 3.51562 24.7266H4.45125C4.99189 26.0253 5.77031 27.2182 6.75369 28.2422H3.51562C2.54637 28.2422 1.75781 27.4536 1.75781 26.4844ZM26.4844 28.2422H23.2463C24.2297 27.2182 25.0081 26.0253 25.5487 24.7266H26.4844C27.4536 24.7266 28.2422 25.5151 28.2422 26.4844C28.2422 27.4536 27.4536 28.2422 26.4844 28.2422Z" fill="#1F4B3F"/>
<path d="M15 22.9688C14.5154 22.9688 14.1211 22.5745 14.1211 22.0898C14.1211 21.6045 13.7276 21.2109 13.2422 21.2109C12.7568 21.2109 12.3633 21.6045 12.3633 22.0898C12.3633 23.2356 13.0981 24.2126 14.1211 24.5754V25.6055C14.1211 26.0909 14.5146 26.4844 15 26.4844C15.4854 26.4844 15.8789 26.0909 15.8789 25.6055V24.5754C16.9019 24.2126 17.6367 23.2356 17.6367 22.0898C17.6367 20.636 16.4539 19.4531 15 19.4531C14.5154 19.4531 14.1211 19.0588 14.1211 18.5742C14.1211 18.0896 14.5154 17.6953 15 17.6953C15.4846 17.6953 15.8789 18.0896 15.8789 18.5742C15.8789 19.0596 16.2724 19.4531 16.7578 19.4531C17.2432 19.4531 17.6367 19.0596 17.6367 18.5742C17.6367 17.4284 16.9019 16.4515 15.8789 16.0887V15.0586C15.8789 14.5732 15.4854 14.1797 15 14.1797C14.5146 14.1797 14.1211 14.5732 14.1211 15.0586V16.0887C13.0981 16.4515 12.3633 17.4284 12.3633 18.5742C12.3633 20.0281 13.5461 21.2109 15 21.2109C15.4846 21.2109 15.8789 21.6052 15.8789 22.0898C15.8789 22.5745 15.4846 22.9688 15 22.9688Z" fill="#1F4B3F"/>
<path d="M15 7.03125C15.4854 7.03125 15.8789 6.63773 15.8789 6.15234V2.63672C15.8789 2.15133 15.4854 1.75781 15 1.75781C14.5146 1.75781 14.1211 2.15133 14.1211 2.63672V6.15234C14.1211 6.63773 14.5146 7.03125 15 7.03125Z" fill="#1F4B3F"/>
<path d="M18.5156 5.27344C19.001 5.27344 19.3945 4.87992 19.3945 4.39453V0.878906C19.3945 0.393516 19.001 0 18.5156 0C18.0302 0 17.6367 0.393516 17.6367 0.878906V4.39453C17.6367 4.87992 18.0302 5.27344 18.5156 5.27344Z" fill="#1F4B3F"/>
<path d="M11.4844 5.27344C11.9698 5.27344 12.3633 4.87992 12.3633 4.39453V0.878906C12.3633 0.393516 11.9698 0 11.4844 0C10.999 0 10.6055 0.393516 10.6055 0.878906V4.39453C10.6055 4.87992 10.999 5.27344 11.4844 5.27344Z" fill="#1F4B3F"/>
</g>
<defs>
<clipPath id="clip0_214_1436">
<rect width="30" height="30" fill="white"/>
</clipPath>
</defs>
</svg>
