<svg width="16" height="17" viewBox="0 0 16 17" fill="none" xmlns="http://www.w3.org/2000/svg">
<g clip-path="url(#clip0_214_1417)">
<path d="M15.5553 0.101562H5.77756C5.53189 0.101562 5.3331 0.300354 5.3331 0.546021C5.3331 0.791687 5.53189 0.990479 5.77756 0.990479H14.4824L0.129975 15.3429C-0.0436504 15.5165 -0.0436504 15.7978 0.129975 15.9714C0.216766 16.0581 0.330516 16.1016 0.444225 16.1016C0.557933 16.1016 0.671641 16.0581 0.758475 15.9714L15.1109 1.61894V10.3238C15.1109 10.5695 15.3097 10.7683 15.5553 10.7683C15.801 10.7683 15.9998 10.5695 15.9998 10.3238V0.546021C15.9998 0.300354 15.801 0.101562 15.5553 0.101562Z" fill="white"/>
</g>
<defs>
<clipPath id="clip0_214_1417">
<rect width="16" height="16" fill="white" transform="translate(0 0.101562)"/>
</clipPath>
</defs>
</svg>
