<svg width="40" height="41" viewBox="0 0 40 41" fill="none" xmlns="http://www.w3.org/2000/svg">
<g clip-path="url(#clip0_232_3249)">
<path d="M37.5779 0.0996094H2.42212V23.5368H10.6251V27.8791C10.6251 33.4884 14.3472 38.4753 19.6764 40.0066L20 40.0995L20.3236 40.0066C25.6528 38.4753 29.3749 33.4883 29.3749 27.8791V23.5368H37.5779V0.0996094ZM35.2342 2.44333V4.78705H4.76584V2.44333H35.2342ZM27.0312 27.8791C27.0312 32.3344 24.1568 36.3057 20 37.655C15.8432 36.3057 12.9689 32.3344 12.9689 27.8791V23.5368H16.4844C17.8829 23.5368 19.1404 22.9211 20 21.9467C20.8596 22.9212 22.1171 23.5368 23.5156 23.5368H27.0312V27.8791ZM23.5156 21.1931C22.2233 21.1931 21.1719 20.1417 21.1719 18.8494H18.8281C18.8281 20.1417 17.7768 21.1931 16.4844 21.1931C15.9666 21.1931 5.28411 21.1931 4.76584 21.1931V7.13076H35.2342V21.1931C34.7171 21.1931 24.035 21.1931 23.5156 21.1931Z" fill="#1F4B3F"/>
<path d="M20.5032 25.202L20.0002 24.9629L19.4971 25.202C18.55 25.6522 17.5365 25.8805 16.4846 25.8805H15.3127V27.8786C15.3127 30.762 16.8965 33.4033 19.446 34.7715L20.0002 35.0689L20.5543 34.7715C23.1038 33.4032 24.6876 30.762 24.6876 27.8786V25.8805H23.5158C22.4639 25.8805 21.4503 25.6522 20.5032 25.202ZM20.0001 32.3659C18.6141 31.3978 17.7474 29.8467 17.6631 28.151C18.4656 28.0504 19.2471 27.8464 20.0001 27.5404C20.7531 27.8464 21.5346 28.0504 22.3371 28.151C22.2529 29.8467 21.3861 31.3978 20.0001 32.3659Z" fill="#1F4B3F"/>
<path d="M25.8596 14.1621H32.8908V16.5058H25.8596V14.1621Z" fill="#1F4B3F"/>
</g>
<defs>
<clipPath id="clip0_232_3249">
<rect width="40" height="40" fill="white" transform="translate(0 0.0996094)"/>
</clipPath>
</defs>
</svg>
