<svg width="26" height="30" viewBox="0 0 26 30" fill="none" xmlns="http://www.w3.org/2000/svg">
<path d="M25.5704 7.72445C25.555 6.91449 25.5403 6.14934 25.5403 5.4091C25.5403 4.82918 25.0702 4.35903 24.4902 4.35903C19.9994 4.35903 16.5802 3.06841 13.7301 0.297329C13.3224 -0.0991798 12.6736 -0.0990398 12.266 0.297329C9.41626 3.06841 5.99763 4.35903 1.50708 4.35903C0.927155 4.35903 0.457 4.82918 0.457 5.4091C0.457 6.14948 0.442439 6.91491 0.426898 7.72501C0.282968 15.2626 0.085834 25.5857 12.6541 29.9421C12.7656 29.9808 12.8818 30.0001 12.998 30.0001C13.1142 30.0001 13.2306 29.9808 13.3419 29.9421C25.9111 25.5856 25.7143 15.2622 25.5704 7.72445ZM12.9981 27.8357C2.21917 23.92 2.38214 15.3423 2.52677 7.76506C2.53545 7.3103 2.54385 6.86955 2.54973 6.43748C6.75564 6.25995 10.119 4.98543 12.9981 2.47729C15.8776 4.98543 19.2415 6.26009 23.4477 6.43748C23.4535 6.86941 23.4619 7.30988 23.4706 7.76436C23.6151 15.3419 23.778 23.9199 12.9981 27.8357Z" fill="#1F4B3F"/>
<path d="M16.6133 11.3544L11.5451 16.4223L9.38236 14.2596C8.97227 13.8496 8.30736 13.8496 7.89741 14.2596C7.48732 14.6698 7.48732 15.3346 7.89741 15.7447L10.8026 18.6499C11.0076 18.8549 11.2764 18.9573 11.5451 18.9573C11.8138 18.9573 12.0826 18.8549 12.2876 18.6499L18.0981 12.8395C18.5084 12.4294 18.5084 11.7645 18.0983 11.3545C17.6883 10.9444 17.0234 10.9443 16.6133 11.3544Z" fill="#1F4B3F"/>
</svg>
