<svg width="14" height="13" viewBox="0 0 14 13" fill="none" xmlns="http://www.w3.org/2000/svg">
<path d="M12.5508 3.59766C13.0977 3.1875 13.5898 2.69531 13.9727 2.12109C13.4805 2.33984 12.9062 2.50391 12.332 2.55859C12.9336 2.20312 13.3711 1.65625 13.5898 0.972656C13.043 1.30078 12.4141 1.54688 11.7852 1.68359C11.2383 1.10938 10.5 0.78125 9.67969 0.78125C8.09375 0.78125 6.80859 2.06641 6.80859 3.65234C6.80859 3.87109 6.83594 4.08984 6.89062 4.30859C4.51172 4.17188 2.37891 3.02344 0.957031 1.30078C0.710938 1.71094 0.574219 2.20312 0.574219 2.75C0.574219 3.73438 1.06641 4.60938 1.85938 5.12891C1.39453 5.10156 0.929688 4.99219 0.546875 4.77344V4.80078C0.546875 6.19531 1.53125 7.34375 2.84375 7.61719C2.625 7.67188 2.35156 7.72656 2.10547 7.72656C1.91406 7.72656 1.75 7.69922 1.55859 7.67188C1.91406 8.82031 2.98047 9.64062 4.23828 9.66797C3.25391 10.4336 2.02344 10.8984 0.683594 10.8984C0.4375 10.8984 0.21875 10.8711 0 10.8438C1.25781 11.6641 2.76172 12.1289 4.40234 12.1289C9.67969 12.1289 12.5508 7.78125 12.5508 3.98047C12.5508 3.84375 12.5508 3.73438 12.5508 3.59766Z" fill="white"/>
</svg>
