<svg width="16" height="16" viewBox="0 0 16 16" fill="none" xmlns="http://www.w3.org/2000/svg">
<path d="M7.7825 0C3.5285 0 0.0665 3.44565 0.065 7.68025C0.064 9.03443 0.42 10.3561 1.095 11.5201L0 15.5L4.0915 14.432C5.22961 15.0472 6.49509 15.3681 7.7795 15.3672H7.7825C12.0365 15.3672 15.4985 11.9211 15.5 7.68645C15.501 5.63528 14.699 3.7045 13.2415 2.25318C11.7845 0.80135 9.847 0.000516667 7.7825 0ZM7.7825 14.0699H7.78C6.629 14.0699 5.5 13.7619 4.515 13.1802L4.28 13.0417L1.853 13.6751L2.501 11.3191L2.3485 11.0778C1.70795 10.0684 1.36697 8.88739 1.3675 7.68025C1.369 4.1602 4.247 1.29735 7.785 1.29735C9.498 1.29787 11.1085 1.96282 12.32 3.16923C13.5315 4.37565 14.198 5.9799 14.197 7.68593C14.1955 11.206 11.318 14.0699 7.782 14.0699H7.7825ZM11.301 9.28812C11.108 9.19253 10.16 8.72805 9.983 8.66347C9.8065 8.59992 9.678 8.56685 9.5495 8.75905C9.4215 8.95125 9.0515 9.3837 8.9395 9.51132C8.8265 9.63945 8.714 9.65495 8.521 9.55937C8.328 9.46327 7.7065 9.26073 6.9705 8.60663C6.397 8.09823 6.01 7.46997 5.8975 7.27725C5.785 7.08557 5.8855 6.98172 5.982 6.88613C6.0685 6.80088 6.175 6.66242 6.271 6.5503C6.367 6.43818 6.399 6.3581 6.464 6.22997C6.528 6.10235 6.496 5.98972 6.4475 5.89413C6.399 5.79752 6.014 4.85305 5.8525 4.46917C5.6965 4.0951 5.5375 4.14522 5.419 4.13902C5.3065 4.13385 5.1785 4.1323 5.049 4.1323C4.9215 4.1323 4.712 4.18035 4.535 4.37255C4.3585 4.56475 3.86 5.02872 3.86 5.97318C3.86 6.91817 4.551 7.8306 4.6475 7.95873C4.744 8.08635 6.0075 10.0254 7.942 10.8572C8.402 11.0541 8.761 11.1724 9.0415 11.2613C9.5035 11.4075 9.924 11.3863 10.256 11.3372C10.626 11.2819 11.397 10.8732 11.557 10.4253C11.718 9.97735 11.718 9.59295 11.67 9.51287C11.623 9.43278 11.494 9.38473 11.301 9.28812Z" fill="white"/>
</svg>
