<svg width="20" height="15" viewBox="0 0 20 15" fill="none" xmlns="http://www.w3.org/2000/svg">
<path d="M19.8008 3.2366C19.8008 3.2366 19.6055 1.76618 19.0039 1.12052C18.2422 0.270758 17.3906 0.266592 17 0.216606C14.2031 -1.19176e-07 10.0039 0 10.0039 0H9.99609C9.99609 0 5.79688 -1.19176e-07 3 0.216606C2.60938 0.266592 1.75781 0.270758 0.996094 1.12052C0.394531 1.76618 0.203125 3.2366 0.203125 3.2366C0.203125 3.2366 0 4.96529 0 6.68981V8.30603C0 10.0305 0.199219 11.7592 0.199219 11.7592C0.199219 11.7592 0.394531 13.2297 0.992187 13.8753C1.75391 14.7251 2.75391 14.6959 3.19922 14.7876C4.80078 14.95 10 15 10 15C10 15 14.2031 14.9917 17 14.7792C17.3906 14.7292 18.2422 14.7251 19.0039 13.8753C19.6055 13.2297 19.8008 11.7592 19.8008 11.7592C19.8008 11.7592 20 10.0347 20 8.30603V6.68981C20 4.96529 19.8008 3.2366 19.8008 3.2366ZM7.93359 10.268V4.27381L13.3359 7.28131L7.93359 10.268Z" fill="white"/>
</svg>
